<?xml version="1.0" standalone="no"?>
<!DOCTYPE svg PUBLIC "-//W3C//DTD SVG 1.1//EN" "http://www.w3.org/Graphics/SVG/1.1/DTD/svg11.dtd" >
<svg xmlns="http://www.w3.org/2000/svg">
<metadata>Generated by IcoMoon</metadata>
<defs>
<font id="icomoon" horiz-adv-x="1024">
<font-face units-per-em="1024" ascent="960" descent="-64" />
<missing-glyph horiz-adv-x="1024" />
<glyph unicode="&#x20;" d="" horiz-adv-x="512" />
<glyph unicode="&#xe600;" d="M748.8-6.4c-147.2 0-291.2 0-438.4 0-3.2 22.4 0 25.6 22.4 32 3.2 0 6.4 3.2 12.8 3.2 25.6 6.4 54.4 9.6 76.8 19.2 32 9.6 51.2 32 57.6 67.2 3.2 12.8 3.2 28.8 0 41.6-3.2 32-6.4 60.8-9.6 92.8-3.2 19.2-3.2 38.4-6.4 57.6-3.2-3.2-6.4-6.4-9.6-9.6-32-32-70.4-44.8-115.2-35.2-6.4 0-9.6 0-16-6.4-41.6-54.4-124.8-41.6-150.4 19.2-3.2 6.4-6.4 16-6.4 22.4-16 0-28.8-3.2-41.6 0-41.6 9.6-70.4 44.8-70.4 86.4s25.6 76.8 67.2 86.4c6.4 0 6.4 0 6.4 6.4 0 25.6 12.8 51.2 32 70.4 0 0 0 3.2 3.2 3.2-25.6-3.2-48 0-67.2 12.8s-32 32-38.4 57.6c-3.2 22.4 0 41.6 9.6 60.8 16 25.6 38.4 38.4 67.2 44.8-9.6 41.6 3.2 76.8 38.4 99.2s70.4 19.2 105.6-6.4c0 3.2 0 6.4 0 9.6 3.2 57.6 54.4 99.2 112 83.2 6.4 0 9.6 0 12.8 3.2 25.6 32 60.8 44.8 102.4 35.2 35.2-9.6 57.6-32 70.4-67.2-3.2-3.2 0-6.4 3.2-6.4 35.2 3.2 64-12.8 83.2-41.6 3.2-6.4 6.4-12.8 9.6-22.4 41.6 35.2 92.8 25.6 121.6 0 12.8-12.8 22.4-28.8 25.6-48 6.4-28.8 0-51.2-19.2-73.6 3.2 0 3.2 0 3.2 0 41.6-3.2 76.8-32 83.2-70.4 0-3.2 3.2-6.4 6.4-6.4 6.4-3.2 12.8-3.2 19.2-6.4 32-12.8 54.4-51.2 51.2-86.4s-28.8-67.2-64-76.8c-3.2 0-9.6 0-9.6-6.4s-3.2-12.8 6.4-19.2c28.8-22.4 38.4-51.2 32-86.4s-35.2-64-70.4-70.4c-35.2-6.4-73.6 9.6-92.8 38.4-9.6 12.8-12.8 16-28.8 6.4-22.4-12.8-48-16-73.6-12.8-89.6 16-128 118.4-70.4 188.8 0 3.2 3.2 3.2 3.2 6.4-3.2 3.2-9.6 6.4-12.8 9.6-16-19.2-32-35.2-54.4-48-3.2 0-3.2-6.4-3.2-9.6 0-25.6 0-54.4 0-80 3.2-57.6 19.2-105.6 67.2-144 3.2-3.2 6.4-6.4 6.4-12.8 0-35.2 0-67.2 3.2-102.4 0-19.2 6.4-35.2 19.2-51.2 16-19.2 38.4-25.6 60.8-28.8 16-3.2 32-6.4 48-9.6 12.8-3.2 19.2-9.6 19.2-19.2z" />
<glyph unicode="&#xe601;" d="M512.352 658.356v0c-42.978 0-79.058 33.782-79.058 79.058v0c0 40.678 33.782 79.058 79.058 79.058v0c40.678 0 79.058-33.78 79.058-79.058v0c-2.298-42.978-36.082-79.058-79.058-79.058zM340.796 360.342v0c-42.978 0-79.058 33.78-79.058 79.058v0c0 40.678 33.78 79.058 79.058 79.058v0c40.678 0 79.058-33.782 79.058-79.058v0c0-45.278-33.96-79.058-79.058-79.058zM681.614 360.342v0c-42.98 0-79.058 33.78-79.058 79.058v0c0 40.678 33.78 79.058 79.058 79.058v0c40.678 0 79.058-33.782 79.058-79.058v0c0-45.278-33.78-79.058-79.058-79.058zM433.296 346.722h-160.238c-40.678 0-79.058-33.78-79.058-79.058v-88.078c0-38.38 29.36-70.038 63.142-74.462v151.22c0 11.32 11.32 27.060 27.060 27.060h139.9c11.32 0 27.060-11.32 27.060-27.060v-151.042c36.082 6.722 61.018 38.38 61.018 74.462v90.376c0.178 42.802-35.904 76.582-78.882 76.582zM783.312 651.636h-530.592c-40.678 0-79.058-33.78-79.058-79.058v-140.076c0-38.38 29.36-70.038 63.14-79.058v205.516c0 11.32 11.32 27.060 27.060 27.060h492.214c11.32 0 27.060-11.32 27.060-27.060v-205.516c40.678 2.298 72.16 36.082 72.16 79.058v139.9c4.774 45.278-31.304 79.234-71.984 79.234zM769.692 346.722h-162.538c-40.678 0-79.058-33.78-79.058-79.058v-88.078c0-38.38 29.36-70.038 63.14-74.462v151.22c0 11.32 11.32 27.060 27.060 27.060h139.9c11.32 0 27.060-11.32 27.060-27.060v-151.042c36.082 6.722 61.018 38.38 61.018 74.462v90.376c2.476 42.802-31.304 76.582-76.582 76.582z" />
<glyph unicode="&#xe602;" d="M246.764 274.814c-21.092-21.092-54.962-21.092-76.054 0s-21.092 54.326 0 75.42l303.578 297.192c21.092 21.092 54.962 21.092 76.054 0l303.58-297.192c21.092-21.092 21.092-54.326 0-75.42s-54.962-21.092-76.054 0l-265.87 243.504-265.236-243.504z" />
<glyph unicode="&#xe603;" d="M292.572 237.714v-109.714q0-22.856-16-38.856t-38.856-16h-182.856q-22.856 0-38.856 16t-16 38.856v109.714q0 22.856 16 38.856t38.856 16h182.856q22.856 0 38.856-16t16-38.856zM292.572 530.286v-109.714q0-22.856-16-38.856t-38.856-16h-182.856q-22.856 0-38.856 16t-16 38.856v109.714q0 22.858 16 38.858t38.856 16h182.856q22.856 0 38.856-16t16-38.856zM658.286 237.714v-109.714q0-22.856-16-38.856t-38.856-16h-182.856q-22.856 0-38.856 16t-16 38.856v109.714q0 22.856 16 38.856t38.856 16h182.856q22.856 0 38.856-16t16-38.856zM292.572 822.858v-109.714q0-22.856-16-38.856t-38.856-16h-182.856q-22.856 0-38.856 16t-16 38.856v109.714q0 22.856 16 38.856t38.856 16h182.856q22.856 0 38.856-16t16-38.856zM658.286 530.286v-109.714q0-22.856-16-38.856t-38.856-16h-182.856q-22.856 0-38.856 16t-16 38.856v109.714q0 22.858 16 38.858t38.856 16h182.856q22.856 0 38.856-16t16-38.856zM1024 237.714v-109.714q0-22.856-16-38.856t-38.856-16h-182.856q-22.856 0-38.856 16t-16 38.856v109.714q0 22.856 16 38.856t38.856 16h182.856q22.856 0 38.856-16t16-38.856zM658.286 822.858v-109.714q0-22.856-16-38.856t-38.856-16h-182.856q-22.856 0-38.856 16t-16 38.856v109.714q0 22.856 16 38.856t38.856 16h182.856q22.856 0 38.856-16t16-38.856zM1024 530.286v-109.714q0-22.856-16-38.856t-38.856-16h-182.856q-22.856 0-38.856 16t-16 38.856v109.714q0 22.858 16 38.858t38.856 16h182.856q22.856 0 38.856-16t16-38.856zM1024 822.858v-109.714q0-22.856-16-38.856t-38.856-16h-182.856q-22.856 0-38.856 16t-16 38.856v109.714q0 22.856 16 38.856t38.856 16h182.856q22.856 0 38.856-16t16-38.856z" />
<glyph unicode="&#xe604;" d="M777.236 646.786c21.092 21.092 54.962 21.092 76.054 0s21.092-54.326 0-75.42l-303.578-297.192c-21.092-21.092-54.962-21.092-76.054 0l-303.58 297.192c-21.092 21.092-21.092 54.326 0 75.42s54.962 21.092 76.054 0l265.87-243.504 265.236 243.504z" />
<glyph unicode="&#xe605;" d="M290.133 385.422c0-23.564-19.103-42.667-42.667-42.667s-42.667 19.103-42.667 42.667c0 23.564 19.103 42.667 42.667 42.667s42.667-19.103 42.667-42.667zM802.133 388.267c0-23.564-19.103-42.667-42.667-42.667s-42.667 19.103-42.667 42.667c0 23.564 19.103 42.667 42.667 42.667s42.667-19.103 42.667-42.667zM253.156 510.578c-68.267 0-122.311-54.044-122.311-122.311s54.044-122.311 122.311-122.311c68.267 0 122.311 54.044 122.311 122.311 2.844 65.422-54.044 122.311-122.311 122.311zM253.156 300.089c-48.356 0-85.333 36.978-85.333 85.333s36.978 85.333 85.333 85.333c48.356 0 85.333-36.978 85.333-85.333 0-45.511-36.978-85.333-85.333-85.333zM1024 638.578h-170.667c-85.333 56.889-204.8 93.867-341.333 93.867s-261.689-36.978-349.867-93.867h-162.133c25.6-31.289 45.511-73.956 51.2-102.4-31.289-42.667-48.356-93.867-48.356-150.756 0-139.378 113.778-256 256-256 79.644 0 150.756 36.978 199.111 93.867 19.911-22.756 51.2-68.267 56.889-79.644 0 0 36.978 54.044 56.889 79.644 45.511-56.889 116.622-93.867 199.111-93.867 139.378 0 256 113.778 256 256 0 56.889-17.067 108.089-48.356 150.756 0 28.444 19.911 71.111 45.511 102.4zM256 180.622c-113.778 0-204.8 91.022-204.8 204.8s91.022 204.8 204.8 204.8 204.8-91.022 204.8-204.8c2.844-113.778-91.022-204.8-204.8-204.8zM258.844 641.422c73.956 31.289 162.133 48.356 253.156 48.356s173.511-17.067 247.467-48.356c-136.533-2.844-247.467-116.622-247.467-256 0 142.222-113.778 256-253.156 256zM768 180.622c-113.778 0-204.8 91.022-204.8 204.8s91.022 204.8 204.8 204.8c113.778 0 204.8-91.022 204.8-204.8s-93.867-204.8-204.8-204.8zM768 510.578c-68.267 0-122.311-54.044-122.311-122.311s54.044-122.311 122.311-122.311c68.267 0 122.311 54.044 122.311 122.311s-54.044 122.311-122.311 122.311zM768 302.933c-48.356 0-85.333 36.978-85.333 85.333s36.978 85.333 85.333 85.333 85.333-36.978 85.333-85.333c0-48.356-39.822-85.333-85.333-85.333z" />
<glyph unicode="&#xe606;" d="M438.858 749.714q-84.57 0-156-41.714t-113.144-113.144-41.714-156 41.714-156 113.144-113.144 156-41.714 156 41.714 113.144 113.144 41.714 156-41.714 156-113.144 113.144-156 41.714zM877.714 438.858q0-119.428-58.856-220.286t-159.714-159.714-220.286-58.856-220.286 58.856-159.714 159.714-58.856 220.286 58.856 220.286 159.714 159.714 220.286 58.856 220.286-58.856 159.714-159.714 58.856-220.286z" horiz-adv-x="878" />
<glyph unicode="&#xe607;" d="M438.858 749.714c-56.456 0-108.344-13.942-155.886-41.6s-85.258-65.6-113.144-113.142-41.83-99.658-41.83-156.114 13.944-108.342 41.6-155.886 65.6-85.258 113.142-113.144 99.656-41.828 156.114-41.828 108.342 13.942 155.886 41.6 85.258 65.6 113.144 113.144 41.828 99.658 41.828 156.114-13.942 108.342-41.6 155.886-65.6 85.256-113.144 113.142-99.656 41.83-156.114 41.83zM877.714 438.858c0-79.544-19.658-153.144-58.972-220.342s-92.572-120.456-159.77-159.77-140.572-58.744-220.114-58.744-153.144 19.658-220.342 58.972-120.456 92.572-159.77 159.77-58.744 140.572-58.744 220.114 19.658 153.144 58.97 220.342 92.57 120.456 159.77 159.77 140.572 58.744 220.114 58.744 153.144-19.658 220.342-58.972 120.456-92.572 159.77-159.772 58.744-140.57 58.744-220.114zM621.714 457.144v-36.57c0-5.028-1.828-9.144-5.486-12.8s-8-5.486-12.8-5.486h-128v-128c0-5.028-1.83-9.144-5.486-12.8s-8-5.486-12.8-5.486h-36.57c-5.028 0-9.144 1.828-12.8 5.486s-5.486 8-5.486 12.8v128h-128c-5.028 0-9.142 1.828-12.8 5.486s-5.486 8-5.486 12.8v36.572c0 5.028 1.83 9.144 5.486 12.8s8 5.486 12.8 5.486h128v128c0 5.028 1.83 9.144 5.486 12.8s8 5.486 12.8 5.486h36.572c5.028 0 9.144-1.83 12.8-5.486s5.486-8 5.486-12.8v-128h128c5.028 0 9.144-1.828 12.8-5.486s5.486-7.77 5.486-12.8z" horiz-adv-x="878" />
<glyph unicode="&#xe608;" d="M66.746 329.604l320-320c24.992-24.994 65.516-24.994 90.51 0l320 320c24.992 24.994 24.992 65.516 0 90.51-24.994 24.994-65.516 24.994-90.51 0l-210.746-210.746v613.49c0 35.346-28.654 64-64 64s-64-28.654-64-64v-613.49l-210.746 210.746c-12.496 12.496-28.876 18.744-45.254 18.744s-32.758-6.248-45.254-18.744c-24.994-24.994-24.994-65.516 0-90.51z" horiz-adv-x="878" />
<glyph unicode="&#xe609;" d="M310.4 615.544c0 90.514 73.83 163.886 165.028 163.886s165.028-73.37 165.028-163.886-73.828-163.886-165.028-163.886-165.028 73.37-165.028 163.886v0zM194.972 595.2c0-68.57 83.656-213.028 83.656-213.028l196.8-328 185.37 327.77c0 0 94.856 145.6 94.856 213.028 0 153.828-125.486 278.63-280.456 278.63s-280.228-124.572-280.228-278.4v0z" horiz-adv-x="952" />
<glyph unicode="&#xe60a;" d="M317.942 619.2c0 86.4 70.4 156.572 157.486 156.572s157.486-70.172 157.486-156.572-70.4-156.57-157.486-156.57-157.486 70.17-157.486 156.572v0zM207.77 599.772c0-65.6 79.77-203.428 79.77-203.428l187.886-313.142 177.144 312.914c0 0 90.744 138.972 90.744 203.428 0 146.972-119.77 266.058-267.656 266.058s-267.886-119.086-267.886-265.83v0zM475.428 0.228c-64 0-126.17 12.572-184.458 37.256-56.456 24-107.2 58.058-150.628 101.714-43.656 43.658-77.714 94.17-101.714 150.63-24.914 58.514-37.256 120.686-37.256 184.686s12.57 126.17 37.256 184.456c23.772 56.456 58.058 107.2 101.486 150.63s94.172 77.714 150.63 101.714c58.514 24.686 120.686 37.256 184.686 37.256s126.172-12.57 184.456-37.256c56.456-24 107.2-58.058 150.63-101.714 43.658-43.658 77.714-94.172 101.714-150.63 24.686-58.514 37.256-120.456 37.256-184.456s-12.572-126.172-37.256-184.456c-24-56.456-58.058-107.2-101.714-150.63-43.658-43.658-94.172-77.714-150.63-101.714-58.286-24.914-120.456-37.486-184.456-37.486zM475.428 912c-59.2 0-116.344-11.658-170.286-34.286-52.114-22.172-98.972-53.714-138.972-93.714s-71.77-87.086-93.714-138.972c-22.63-53.714-34.286-111.086-34.286-170.286s11.656-116.342 34.286-170.286c22.17-52.114 53.714-98.972 93.714-138.97s87.086-71.772 138.972-93.714c53.942-22.856 111.314-34.286 170.286-34.286s116.342 11.658 170.286 34.286c52.114 22.172 98.972 53.714 138.972 93.714s71.77 87.086 93.714 138.972c22.856 53.942 34.286 111.314 34.286 170.286s-11.658 116.344-34.286 170.286c-22.172 52.114-53.714 98.972-93.714 138.972s-87.086 71.772-138.972 93.714c-53.942 22.628-111.086 34.286-170.286 34.286z" horiz-adv-x="952" />
<glyph unicode="&#xe60b;" d="M289.578 438.858c0-59.768-48.45-108.218-108.218-108.218s-108.218 48.452-108.218 108.218c0 59.768 48.452 108.218 108.218 108.218s108.218-48.452 108.218-108.218zM576.996 438.858c0-59.768-48.452-108.218-108.218-108.218s-108.218 48.452-108.218 108.218c0 59.768 48.452 108.218 108.218 108.218s108.218-48.452 108.218-108.218zM864.414 438.858c0-59.768-48.452-108.218-108.218-108.218s-108.218 48.452-108.218 108.218c0 59.768 48.452 108.218 108.218 108.218s108.218-48.452 108.218-108.218z" horiz-adv-x="952" />
<glyph unicode="&#xe60c;" d="M431.428 347.428q0-7.428-5.714-13.144l-189.714-189.714 82.286-82.286q10.858-10.856 10.858-25.714t-10.856-25.714-25.714-10.856h-256q-14.856 0-25.714 10.856t-10.856 25.714v256q0 14.856 10.856 25.714t25.714 10.856 25.714-10.856l82.286-82.286 189.714 189.714q5.714 5.714 13.144 5.714t13.144-5.714l65.144-65.144q5.714-5.714 5.714-13.144zM877.714 841.144v-256q0-14.856-10.856-25.714t-25.714-10.856-25.714 10.856l-82.286 82.286-189.714-189.714q-5.714-5.714-13.144-5.714t-13.144 5.714l-65.144 65.144q-5.714 5.714-5.714 13.144t5.714 13.144l189.714 189.714-82.286 82.286q-10.856 10.856-10.856 25.714t10.856 25.714 25.714 10.856h256q14.856 0 25.714-10.856t10.856-25.714z" horiz-adv-x="878" />
<glyph unicode="&#xe60d;" d="M813.254 548.112l-320 320c-24.992 24.994-65.514 24.994-90.508 0l-320-320c-24.994-24.994-24.994-65.516 0-90.51s65.516-24.996 90.51 0l210.744 210.746v-613.49c0-35.346 28.654-64 64-64s64 28.654 64 64v613.49l210.746-210.746c12.496-12.496 28.876-18.744 45.254-18.744s32.758 6.248 45.254 18.746c24.994 24.994 24.994 65.514 0 90.508z" horiz-adv-x="878" />
<glyph unicode="&#xe60e;" d="M18.056 378.972l178.972-181.258c14.4-14.4 36.342-14.4 50.742 0l178.97 178.972c14.4 14.4 14.4 36.342 0 50.744s-36.344 14.4-50.742 0l-118.4-118.4v345.6c0 19.428-16.914 36.342-36.344 36.342s-33.83-17.142-33.83-36.342v-345.6l-118.63 118.4c-7.314 7.314-16.914 9.6-24.228 9.6s-16.686-4.8-24-9.6c-16.914-12.114-16.914-33.828-2.514-48.456zM859.2 498.744l-178.972 181.258c-14.4 14.4-36.342 14.4-50.744 0l-178.972-178.972c-14.4-14.4-14.4-36.344 0-50.744s36.344-14.4 50.742 0l118.4 118.4v-345.6c0-19.428 16.914-36.342 36.342-36.342s36.342 16.914 36.342 36.342v343.314l118.4-118.4c7.314-7.314 16.914-9.6 24.23-9.6 9.6 0 16.914 4.8 24.23 9.6 14.63 14.4 14.63 36.114 0 50.742z" horiz-adv-x="878" />
<glyph unicode="&#xe60f;" d="M460.266 143.97c-4.484 0-8.966 1.034-13.278 2.932-10.864 5.174-17.762 16.038-17.762 28.11v104.158h-210.56c-51.39 0-93.124 41.732-93.124 93.124v262.812c0 51.39 41.732 93.122 93.124 93.122h584.948c51.39 0 93.124-41.732 93.124-93.122v-262.812c0-51.39-41.732-93.124-93.124-93.124h-168.31l-155.204-128.13c-5.69-4.656-12.762-7.070-19.832-7.070zM218.664 666.144c-17.074 0-31.040-13.968-31.040-31.040v-262.812c0-17.072 13.968-31.042 31.040-31.042h241.6c17.072 0 31.040-13.968 31.040-31.042v-69.324l112.954 93.294c5.52 4.656 12.59 7.070 19.832 7.070h179.52c17.072 0 31.042 13.97 31.042 31.042v262.812c0 17.072-13.97 31.040-31.042 31.040h-584.948z" />
<glyph unicode="&#xe610;" d="M961.024 445.44l-410.83 411.188c-20.992 21.812-55.346 21.812-76.338 0l-410.88-411.188c-21.042-21.76-13.21-39.63 17.408-39.63h85.658v-315.802c0-22.784 0.974-41.422 42.188-41.422h199.424v316.826h208.64v-316.826h209.356c31.438 0 32.308 18.586 32.308 41.422v315.802h85.606c30.566 0 38.452 17.818 17.458 39.63z" />
<glyph unicode="&#xe611;" d="M507.428 274.286l66.286 66.286-86.856 86.856-66.286-66.286v-32h54.858v-54.856h32zM758.856 685.714q-9.144 9.144-18.856-0.572l-200-200q-9.714-9.714-0.572-18.856t18.856 0.572l200 200q9.714 9.714 0.572 18.856zM804.572 346.286v-108.572q0-68-48.286-116.286t-116.286-48.286h-475.428q-68 0-116.286 48.286t-48.286 116.286v475.428q0 68 48.286 116.286t116.286 48.286h475.428q36 0 66.856-14.286 8.572-4 10.286-13.144 1.714-9.714-5.144-16.57l-28-28q-8-8-18.286-4.572-13.144 3.428-25.714 3.428h-475.428q-37.714 0-64.57-26.856t-26.856-64.572v-475.428q0-37.714 26.856-64.572t64.57-26.856h475.428q37.714 0 64.572 26.856t26.856 64.572v72q0 7.428 5.144 12.572l36.572 36.572q8.572 8.572 20 4t11.428-16.572zM749.714 768l164.572-164.572-384-384h-164.572v164.572zM1003.428 692.572l-52.572-52.57-164.572 164.57 52.572 52.572q16 16 38.856 16t38.856-16l86.856-86.856q16-16 16-38.856t-16-38.856z" />
<glyph unicode="&#xe612;" d="M275.911 829.156c-5.689-14.222-5.689-31.289-5.689-48.356 2.844-213.333 0-429.511 0-642.844 56.889 65.422 113.778 133.689 167.822 201.956 14.222 14.222 25.6 34.133 48.356 36.978 54.044 2.844 110.933-2.844 164.978 2.844 11.378 0 22.756 5.689 25.6 19.911 11.378 36.978 17.067 76.8 25.6 113.778 2.844 17.067 2.844 42.667-19.911 42.667-65.422 5.689-130.844-2.844-196.267 2.844-34.133 5.689-36.978 48.356-31.289 76.8 0 22.756 22.756 34.133 42.667 34.133 65.422 2.844 133.689 0 199.111 0 14.222 0 31.289 0 36.978 14.222 11.378 25.6 14.222 54.044 19.911 79.644 2.844 22.756 11.378 45.511 5.689 68.267-5.689 17.067-28.444 14.222-45.511 14.222-130.844 0-261.689 0-392.533 0-17.067 0-36.978 0-45.511-17.067v0zM224.711 957.156c11.378 2.844 19.911 2.844 31.289 2.844 179.2 0 358.4 0 537.6 0 28.444 0 65.422-2.844 82.489-28.444 22.756-34.133 11.378-79.644 5.689-119.467-31.289-153.6-59.733-304.356-91.022-457.956-5.689-25.6-11.378-51.2-31.289-68.267-14.222-14.222-34.133-19.911-51.2-19.911-54.044-2.844-110.933 2.844-164.978 0-14.222 0-22.756-8.533-31.289-19.911-76.8-91.022-156.444-179.2-233.244-270.222-11.378-11.378-19.911-25.6-34.133-31.289-22.756-11.378-56.889-5.689-71.111 14.222-11.378 14.222-11.378 31.289-11.378 48.356 0 261.689 0 526.222 0 787.911 0 31.289-2.844 65.422 2.844 96.711 0 31.289 28.444 59.733 59.733 65.422v0z" />
<glyph unicode="&#xe613;" d="M283.616 35.314c-10.382 0-20.766 2.784-30.394 8.358-145.88 89.656-232.752 245.414-232.752 416.366 0 82.312 20.766 163.862 60.532 235.536 15.448 28.112 50.906 38.496 79.018 22.794 28.112-15.448 38.496-50.906 22.794-79.018-29.884-54.452-46.094-116.502-46.094-179.312 0-130.178 66.356-248.96 177.284-317.342 27.354-16.968 35.964-52.678 18.996-80.034-10.892-17.728-30.14-27.352-49.386-27.352zM519.658-28.002c-31.404 0-57.238 25.074-57.998 56.732-1.012 32.164 24.566 58.758 56.732 59.518 198.814 5.066 358.116 164.876 362.422 363.94v8.104c0 32.166 26.086 57.998 58.25 57.998s58.25-26.086 58.25-57.998v-10.384c-5.572-261.37-214.514-471.074-475.63-477.658-0.76-0.254-1.52-0.254-2.026-0.254zM876.256 625.422c-19.754 0-38.75 9.876-49.64 27.858-68.128 111.942-187.162 178.804-318.1 178.804-62.556 0-124.606-15.702-179.312-46.094-28.112-15.45-63.57-5.066-79.018 22.794-15.45 28.112-5.064 63.568 22.794 79.018 71.676 39.764 153.224 60.532 235.536 60.532 171.966 0 327.978-87.882 417.38-235.028 16.716-27.606 7.852-63.318-19.246-80.034-9.37-5.064-20.006-7.852-30.394-7.852z" />
<glyph unicode="&#xe614;" d="M795.648 89.6h-503.808c-56.32 0-102.4 46.080-102.4 102.4v599.040c0 22.528 18.432 40.96 40.96 40.96s40.96-18.432 40.96-40.96v-599.040c0-11.264 9.216-20.48 20.48-20.48h503.808c22.528 0 40.96-18.432 40.96-40.96s-18.432-40.96-40.96-40.96zM624.64 622.080h-251.904c-29.696 0-54.272 24.576-54.272 54.272v0c0 29.696 24.576 54.272 54.272 54.272h251.904c29.696 0 54.272-24.576 54.272-54.272v0c0-29.696-24.576-54.272-54.272-54.272zM719.872 433.664h-347.136c-29.696 0-54.272 24.576-54.272 54.272v0c0 29.696 24.576 54.272 54.272 54.272h347.136c29.696 0 54.272-24.576 54.272-54.272v0c0-29.696-24.576-54.272-54.272-54.272zM684.032 246.272h-311.296c-29.696 0-54.272 24.576-54.272 54.272v0c0 29.696 24.576 54.272 54.272 54.272h310.272c29.696 0 54.272-24.576 54.272-54.272v0c1.024-29.696-23.552-54.272-53.248-54.272z" horiz-adv-x="952" />
<glyph unicode="&#xe615;" d="M669.144 486.286l-241.144-241.144q-10.856-10.856-25.714-10.856t-25.714 10.856l-168 168q-10.856 10.856-10.856 25.714t10.856 25.714l58.286 58.286q10.858 10.856 25.714 10.856t25.714-10.856l84-84 157.142 157.144q10.856 10.856 25.714 10.856t25.714-10.856l58.286-58.286q10.856-10.856 10.856-25.714t-10.856-25.714zM749.714 438.858q0 84.572-41.714 156t-113.144 113.144-156 41.714-156-41.714-113.144-113.144-41.714-156 41.714-156 113.144-113.144 156-41.714 156 41.714 113.144 113.144 41.714 156zM877.714 438.858q0-119.428-58.856-220.286t-159.714-159.714-220.286-58.856-220.286 58.856-159.714 159.714-58.856 220.286 58.856 220.286 159.714 159.714 220.286 58.856 220.286-58.856 159.714-159.714 58.856-220.286z" horiz-adv-x="878" />
<glyph unicode="&#xe616;" d="M749.714 440.572q0 92-49.714 168.572l-430.858-430.286q78.286-50.856 169.714-50.856 63.428 0 120.856 24.856t99.144 66.572 66.286 99.714 24.572 121.428zM178.856 269.714l431.428 430.856q-77.144 52-171.428 52-84.572 0-156-41.714t-113.144-113.714-41.714-156.57q0-92.572 50.856-170.856zM877.714 440.572q0-89.714-34.856-171.428t-93.428-140.572-140-93.714-170.572-34.856-170.572 34.856-140 93.714-93.43 140.572-34.856 171.428 34.856 171.144 93.43 140.286 140 93.714 170.572 34.856 170.572-34.856 140-93.714 93.428-140.286 34.856-171.144z" horiz-adv-x="878" />
<glyph unicode="&#xe617;" d="M657.2 273.8c-13.8-13.8-13.8-36.4 0-50.2 13.6-13.8 35.8-13.8 49.6 0l196 200c13.8 13.8 13.8 36.4 0 50.2l-196 200c-13.8 13.8-35.8 13.8-49.6 0s-13.8-36.2 0-50l160.8-175-160.8-175zM871 416.8h-374.2c-20.4 0-37 16.6-37 37v0c0 20.4 16.6 37 37 37h374.2c20.4 0 37-16.6 37-37v0c0-20.4-16.6-37-37-37zM702.8 176.4c-5-13.8-18.2-23.6-33.8-23.6h-520.2c-19.8 0-36 16.2-36 36v520.4c0 19.8 16.2 36 36 36h520.2c14.8 0 27.6-9 33.2-22h74c-7 53-52.2 94-107 94h-520.4c-59.6 0-108-48.4-108-108v-520.2c0-59.6 48.4-108 108-108h520.2c55.4 0 101 41.8 107.2 95.6h-73.4z" horiz-adv-x="952" />
<glyph unicode="&#xe618;" d="M618.24 897.536h-388.096c-58.368 0-106.496-48.128-106.496-107.52v-683.008c0-59.392 47.104-107.52 106.496-107.52h499.712c58.368 0 106.496 48.128 106.496 107.52v548.864l-218.112 241.664zM625.408 782.848l124.928-139.264h-124.928v139.264zM729.856 71.168h-499.712c-18.432 0-33.792 16.384-33.792 35.84v683.008c0 19.456 15.36 35.84 33.792 35.84h322.56v-193.536c0-32.768 26.624-60.416 60.416-60.416h150.528v-464.896c0-19.456-15.36-35.84-33.792-35.84zM425.728 337.408h-104.448c-21.504 0-37.888 17.408-37.888 37.888v101.376c0 21.504 17.408 37.888 37.888 37.888h103.424c21.504 0 37.888-17.408 37.888-37.888v-101.376c1.024-20.48-16.384-37.888-36.864-37.888zM321.28 484.864c-4.096 0-7.168-3.072-7.168-7.168v-101.376c0-4.096 3.072-7.168 7.168-7.168h103.424c4.096 0 7.168 3.072 7.168 7.168v101.376c0 4.096-3.072 7.168-7.168 7.168h-103.424zM636.672 337.408h-103.424c-21.504 0-37.888 17.408-37.888 37.888v101.376c0 21.504 17.408 37.888 37.888 37.888h103.424c21.504 0 37.888-17.408 37.888-37.888v-101.376c1.024-20.48-16.384-37.888-37.888-37.888zM533.248 484.864c-4.096 0-7.168-3.072-7.168-7.168v-101.376c0-4.096 3.072-7.168 7.168-7.168h103.424c4.096 0 7.168 3.072 7.168 7.168v101.376c0 4.096-3.072 7.168-7.168 7.168h-103.424zM425.728 132.608h-104.448c-21.504 0-37.888 17.408-37.888 37.888v101.376c0 21.504 17.408 37.888 37.888 37.888h103.424c21.504 0 37.888-17.408 37.888-37.888v-101.376c1.024-20.48-16.384-37.888-36.864-37.888zM321.28 280.064c-4.096 0-7.168-3.072-7.168-7.168v-101.376c0-4.096 3.072-7.168 7.168-7.168h103.424c4.096 0 7.168 3.072 7.168 7.168v101.376c0 4.096-3.072 7.168-7.168 7.168h-103.424zM636.672 132.608h-103.424c-21.504 0-37.888 17.408-37.888 37.888v101.376c0 21.504 17.408 37.888 37.888 37.888h103.424c21.504 0 37.888-17.408 37.888-37.888v-101.376c1.024-20.48-16.384-37.888-37.888-37.888zM533.248 280.064c-4.096 0-7.168-3.072-7.168-7.168v-101.376c0-4.096 3.072-7.168 7.168-7.168h103.424c4.096 0 7.168 3.072 7.168 7.168v101.376c0 4.096-3.072 7.168-7.168 7.168h-103.424z" horiz-adv-x="952" />
<glyph unicode="&#xe619;" d="M618.24 897.536h-388.096c-58.368 0-106.496-48.128-106.496-107.52v-683.008c0-59.392 47.104-107.52 106.496-107.52h499.712c58.368 0 106.496 48.128 106.496 107.52v548.864l-218.112 241.664zM625.408 782.848l124.928-139.264h-124.928v139.264zM729.856 71.168h-499.712c-18.432 0-33.792 16.384-33.792 35.84v683.008c0 19.456 15.36 35.84 33.792 35.84h322.56v-193.536c0-32.768 26.624-60.416 60.416-60.416h150.528v-464.896c0-19.456-15.36-35.84-33.792-35.84zM672.512 433.664h-385.024c-10.24 0-18.432 8.192-18.432 18.432s8.192 18.432 18.432 18.432h384c10.24 0 18.432-8.192 18.432-18.432s-8.192-18.432-17.408-18.432zM672.512 321.024h-385.024c-10.24 0-18.432 8.192-18.432 18.432s8.192 18.432 18.432 18.432h384c10.24 0 18.432-8.192 18.432-18.432s-8.192-18.432-17.408-18.432zM672.512 207.36h-385.024c-10.24 0-18.432 8.192-18.432 18.432s8.192 18.432 18.432 18.432h384c10.24 0 18.432-8.192 18.432-18.432s-8.192-18.432-17.408-18.432z" horiz-adv-x="952" />
<glyph unicode="&#xe61a;" d="M763.648 89.6h-503.808c-56.32 0-102.4 46.080-102.4 102.4v588.8c0 22.528 18.432 40.96 40.96 40.96s40.96-18.432 40.96-40.96v-588.8c0-11.264 9.216-20.48 20.48-20.48h503.808c22.528 0 40.96-18.432 40.96-40.96s-18.432-40.96-40.96-40.96zM321.28 292.352c-4.096 0-8.192 1.024-11.264 4.096-9.216 6.144-11.264 19.456-5.12 28.672l143.36 208.896c4.096 5.12 9.216 8.192 16.384 9.216 6.144 0 12.288-3.072 16.384-8.192l88.064-110.592 140.288 210.944c6.144 9.216 19.456 12.288 28.672 6.144s12.288-19.456 6.144-28.672l-156.672-234.496c-4.096-5.12-9.216-9.216-16.384-9.216-6.144 0-13.312 2.048-17.408 8.192l-88.064 110.592-128-186.368c-3.072-6.144-10.24-9.216-16.384-9.216zM806.656 650.752c0-33.932-27.508-61.44-61.44-61.44s-61.44 27.508-61.44 61.44c0 33.932 27.508 61.44 61.44 61.44s61.44-27.508 61.44-61.44z" horiz-adv-x="952" />
<glyph unicode="&#xe61b;" d="M480 864c-238.629 0-432-193.371-432-432s193.371-432 432-432 432 193.371 432 432-193.371 432-432 432zM480 96c-185.6 0-336 150.4-336 336s150.4 336 336 336 336-150.4 336-336-150.4-336-336-336zM480.229 224v0c-26.286 0-47.771 21.486-47.771 47.771v193.829c0 26.286 21.486 47.771 47.771 47.771v0c26.286 0 47.771-21.486 47.771-47.771v-193.829c0-26.286-21.486-47.771-47.771-47.771zM528 595.886c0-26.383-21.388-47.771-47.771-47.771s-47.771 21.388-47.771 47.771c0 26.383 21.388 47.771 47.771 47.771s47.771-21.388 47.771-47.771z" horiz-adv-x="952" />
<glyph unicode="&#xe61c;" d="M792.32 125.44h-626.688c-48.128 0-73.728 23.552-78.848 71.68l-31.744 350.208c-1.024 11.264-3.072 36.864 14.336 57.344 11.264 13.312 28.672 19.456 51.2 20.48l10.24 93.184c4.096 39.936 38.912 70.656 78.848 70.656h126.976c30.72 0 70.656-16.384 92.16-37.888l23.552-22.528c8.192-8.192 29.696-17.408 41.984-17.408h265.216c37.888 0 73.728-24.576 81.92-58.368l7.168-28.672c17.408-2.048 30.72-9.216 39.936-19.456 18.432-19.456 15.36-46.080 14.336-57.344l-31.744-350.208c-5.12-47.104-30.72-71.68-78.848-71.68zM159.488 198.144c1.024 0 3.072 0 6.144 0h626.688c3.072 0 5.12 0 6.144 0 0 1.024 0 3.072 1.024 6.144l31.744 349.184h-704.512l31.744-349.184c0-3.072 1.024-5.12 1.024-6.144zM193.28 625.152h580.608l-2.048 9.216c-2.048 2.048-7.168 5.12-12.288 5.12h-265.216c-31.744 0-69.632 16.384-92.16 37.888l-23.552 22.528c-8.192 8.192-29.696 17.408-41.984 17.408h-125.952c-3.072 0-7.168-4.096-8.192-7.168l-9.216-84.992z" horiz-adv-x="952" />
<glyph unicode="&#xe61d;" d="M650.24 897.536h-388.096c-58.368 0-106.496-48.128-106.496-107.52v-683.008c0-59.392 47.104-107.52 106.496-107.52h499.712c58.368 0 106.496 48.128 106.496 107.52v548.864l-218.112 241.664zM657.408 782.848l124.928-139.264h-124.928v139.264zM761.856 71.168h-499.712c-18.432 0-33.792 16.384-33.792 35.84v683.008c0 19.456 15.36 35.84 33.792 35.84h322.56v-193.536c0-32.768 26.624-60.416 60.416-60.416h150.528v-464.896c0-19.456-15.36-35.84-33.792-35.84zM649.216 480.768h-79.872l-57.344-83.968-57.344 83.968h-79.872l96.256-144.384-108.544-159.744h155.648v54.272h-35.84l29.696 45.056 66.56-99.328h82.944l-108.544 159.744 96.256 144.384z" horiz-adv-x="952" />
<glyph unicode="&#xe61e;" d="M634.24 897.536h-388.096c-58.368 0-106.496-48.128-106.496-107.52v-683.008c0-59.392 47.104-107.52 106.496-107.52h499.712c58.368 0 106.496 48.128 106.496 107.52v548.864l-218.112 241.664zM641.408 782.848l124.928-139.264h-124.928v139.264zM745.856 71.168h-499.712c-18.432 0-33.792 16.384-33.792 35.84v683.008c0 19.456 15.36 35.84 33.792 35.84h322.56v-193.536c0-32.768 26.624-60.416 60.416-60.416h150.528v-464.896c0-19.456-15.36-35.84-33.792-35.84zM291.2 506.368l98.304 98.304c8.192 8.192 8.192 20.48 0 27.648l-98.304 98.304c-8.192 8.192-20.48 8.192-27.648 0-8.192-8.192-8.192-20.48 0-27.648l64.512-64.512h-232.448c-11.264 0-19.456-9.216-19.456-19.456s9.216-19.456 19.456-19.456h232.448l-64.512-64.512c-4.096-4.096-6.144-9.216-6.144-14.336s2.048-10.24 6.144-14.336c7.168-8.192 19.456-8.192 27.648 0zM291.2 157.184l98.304 98.304c8.192 8.192 8.192 20.48 0 27.648l-98.304 98.304c-8.192 8.192-20.48 8.192-27.648 0-8.192-8.192-8.192-20.48 0-27.648l64.512-64.512h-232.448c-11.264 0-19.456-9.216-19.456-19.456s9.216-19.456 19.456-19.456h232.448l-64.512-64.512c-4.096-4.096-6.144-9.216-6.144-14.336s2.048-10.24 6.144-14.336c7.168-8.192 19.456-8.192 27.648 0z" horiz-adv-x="952" />
<glyph unicode="&#xe61f;" d="M88.832 70.144c-15.36 0-29.696 6.144-37.888 18.432-7.168 9.216-10.24 21.504-10.24 35.84v406.528c0 172.032 142.336 311.296 317.44 311.296h254.976c175.104 0 317.44-140.288 317.44-311.296 0-172.032-142.336-311.296-317.44-311.296h-254.976c-34.816 0-100.352-49.152-149.504-83.968-58.368-43.008-90.112-65.536-119.808-65.536 0 0 0 0 0 0zM358.144 772.608c-136.192 0-247.808-108.544-247.808-241.664v-378.88c17.408 11.264 38.912 26.624 56.32 39.936 62.464 46.080 133.12 98.304 190.464 98.304h256c136.192 0 247.808 108.544 247.808 241.664s-111.616 240.64-247.808 240.64h-254.976zM331.52 466.432v0c-33.792 0-61.44 27.648-61.44 61.44v0c0 33.792 27.648 61.44 61.44 61.44v0c33.792 0 61.44-27.648 61.44-61.44v0c0-34.816-27.648-61.44-61.44-61.44zM491.264 466.432v0c-33.792 0-61.44 27.648-61.44 61.44v0c0 33.792 27.648 61.44 61.44 61.44v0c33.792 0 61.44-27.648 61.44-61.44v0c0-34.816-27.648-61.44-61.44-61.44zM652.032 466.432v0c-33.792 0-61.44 27.648-61.44 61.44v0c0 33.792 27.648 61.44 61.44 61.44v0c33.792 0 61.44-27.648 61.44-61.44v0c0-34.816-27.648-61.44-61.44-61.44z" horiz-adv-x="952" />
<glyph unicode="&#xe620;" d="M858.24 750.080l-104.448 104.448c-18.432 18.432-43.008 27.648-70.656 27.648-32.768 0-64.512-14.336-89.088-38.912l-484.352-485.376c-33.792-33.792-44.032-157.696-47.104-229.376-1.024-16.384 4.096-32.768 15.36-44.032 11.264-12.288 26.624-18.432 43.008-18.432 2.048 0 3.072 0 5.12 0 58.368 3.072 195.584 14.336 233.472 52.224l481.28 481.28c49.152 48.128 56.32 111.616 17.408 150.528zM136.32 204.288l60.416-65.536c-21.504-2.048-44.032-4.096-66.56-6.144 1.024 24.576 3.072 49.152 6.144 71.68zM312.448 165.376c-8.192-7.168-38.912-14.336-78.848-20.48l-93.184 100.352c5.12 33.792 11.264 58.368 16.384 65.536l409.6 409.6 150.528-149.504-404.48-405.504zM792.704 645.632l-54.272-54.272-150.528 150.528 54.272 54.272c11.264 11.264 27.648 18.432 41.984 18.432 6.144 0 15.36-1.024 22.528-8.192l103.424-103.424c15.36-16.384-5.12-44.032-17.408-57.344z" horiz-adv-x="952" />
<glyph unicode="&#xe621;" d="M763.648 89.6h-503.808c-56.32 0-102.4 46.080-102.4 102.4v599.040c0 22.528 18.432 40.96 40.96 40.96s40.96-18.432 40.96-40.96v-599.040c0-11.264 9.216-20.48 20.48-20.48h503.808c22.528 0 40.96-18.432 40.96-40.96s-18.432-40.96-40.96-40.96zM409.344 240.128h-104.448c-1.024 0-2.048 1.024-2.048 2.048v302.080c0 29.696 24.576 54.272 54.272 54.272v0c29.696 0 54.272-24.576 54.272-54.272v-302.080c0-1.024-1.024-2.048-2.048-2.048zM579.328 242.176h-108.544v434.176c0 29.696 24.576 54.272 54.272 54.272v0c29.696 0 54.272-24.576 54.272-54.272v-434.176zM746.24 242.176h-108.544v352.256c0 29.696 24.576 54.272 54.272 54.272v0c29.696 0 54.272-24.576 54.272-54.272v-352.256z" horiz-adv-x="952" />
<glyph unicode="&#xe622;" d="M987.022 539.022c0 0 0 2.844 0 0v0c-2.844 34.133-91.022 56.889-201.956 56.889s-199.111-25.6-201.956-54.044v0 0c0 0 0-2.844 0-2.844v0c2.844-31.289 91.022-54.044 201.956-54.044s199.111 22.756 201.956 54.044v0zM785.067 450.844c0 0 0 0 0 0-2.844 0-2.844 0-5.689 0 2.844 0 5.689 0 5.689 0zM238.933 521.956c128 0 199.111-31.289 210.489-45.511-11.378-14.222-82.489-45.511-210.489-45.511-130.844 0-199.111 31.289-210.489 45.511 11.378 14.222 82.489 45.511 210.489 45.511zM238.933 550.4c-130.844 0-238.933-34.133-238.933-73.956 0 0 0 0 0 0 0-39.822 108.089-73.956 238.933-73.956s238.933 31.289 238.933 73.956c0 0 0 0 0 0 2.844 39.822-105.244 73.956-238.933 73.956v0zM711.111 362.667c182.044 0 281.6-51.2 284.444-79.644v-2.844c0-28.444-102.4-79.644-284.444-79.644s-281.6 54.044-284.444 79.644v0 0c5.689 31.289 102.4 82.489 284.444 82.489zM711.111 391.111c-170.667 0-307.2-48.356-312.889-108.089v0c0 0 0-2.844 0-2.844 2.844-59.733 142.222-108.089 312.889-108.089s310.044 48.356 312.889 108.089c0 0 0 2.844 0 2.844-2.844 62.578-142.222 108.089-312.889 108.089v0zM401.067 675.556c91.022 0 142.222-14.222 153.6-22.756-11.378-8.533-65.422-22.756-153.6-22.756s-142.222 14.222-153.6 22.756c11.378 8.533 65.422 22.756 153.6 22.756zM401.067 689.778c-93.867 0-170.667-17.067-170.667-36.978v0 0c0-19.911 76.8-36.978 170.667-36.978s170.667 17.067 170.667 36.978v0 0c0 19.911-76.8 36.978-170.667 36.978v0zM477.867 476.444c0-39.822-108.089-73.956-238.933-73.956s-238.933 34.133-238.933 73.956v0-39.822c0-42.667 108.089-73.956 238.933-73.956s238.933 31.289 238.933 73.956v0 39.822zM1024 283.022c0-59.733-139.378-108.089-312.889-108.089-170.667 0-310.044 48.356-312.889 108.089 0 0 0-45.511 0-45.511v0 0c2.844-59.733 142.222-108.089 312.889-108.089s307.2 48.356 312.889 108.089v0 45.511zM987.022 507.733v31.289c-2.844-31.289-91.022-56.889-201.956-56.889s-199.111 25.6-201.956 54.044v-31.289c0 0 0 0 0 0 0-31.289 91.022-56.889 201.956-56.889 110.933 2.844 201.956 28.444 201.956 59.733 0 0 0 0 0 0zM401.067 612.978c-93.867 0-170.667 17.067-170.667 36.978v-19.911c2.844-19.911 76.8-36.978 170.667-36.978s167.822 17.067 170.667 36.978v0 19.911c0-19.911-73.956-36.978-170.667-36.978z" />
<glyph unicode="&#xe623;" d="M1024 428.089c0 0 0 0 0 0v0c-2.844 36.978-113.778 105.244-236.089 105.244-128 0-76.8-71.111-176.356-85.333-187.733-19.911-426.667 22.756-523.378 22.756-31.289 0-85.333-11.378-88.178-42.667v0c0 0 0 0 0 0s0 0 0 0v0c0-31.289 56.889-42.667 88.178-42.667 96.711 0 335.644 42.667 523.378 22.756 99.556-14.222 48.356-85.333 176.356-85.333 122.311 0 233.244 68.267 236.089 105.244v0c0 0 0 0 0 0z" />
<glyph unicode="&#xe624;" d="M642.844 931.556h-415.289c-65.422 0-113.778-54.044-113.778-116.622v-733.867c0-68.267 54.044-116.622 113.778-116.622h540.444c62.578 0 113.778 54.044 113.778 116.622v591.644l-238.933 258.844zM651.378 809.244l136.533-147.911h-136.533v147.911zM762.311 38.4h-540.444c-19.911 0-36.978 17.067-36.978 36.978v739.556c0 19.911 17.067 36.978 36.978 36.978h347.022v-213.333c0-34.133 25.6-65.422 65.422-65.422h162.133v-500.622c5.689-19.911-14.222-34.133-34.133-34.133zM640 496.356c-2.844 2.844-11.378 5.689-14.222 5.689s-11.378-2.844-14.222-5.689l-173.511-173.511-51.2 51.2c-2.844 2.844-11.378 5.689-14.222 5.689s-11.378-2.844-14.222-5.689l-36.978-36.978c-8.533-2.844-8.533-8.533-8.533-14.222s2.844-11.378 5.689-14.222l102.4-102.4c2.844-2.844 11.378-5.689 14.222-5.689 5.689 0 11.378 2.844 14.222 5.689l224.711 224.711c2.844 2.844 5.689 11.378 5.689 14.222 0 5.689-2.844 11.378-5.689 14.222l-34.133 36.978z" />
<glyph unicode="&#xe625;" d="M614.4 21.333c0 2.844 0 5.689 2.844 8.533 0 5.689 2.844 11.378 2.844 19.911 0 62.578-51.2 113.778-113.778 113.778s-113.778-51.2-113.778-113.778c0-5.689 0-11.378 2.844-19.911 0-2.844 0-5.689 2.844-8.533 0-2.844 2.844-5.689 2.844-8.533 2.844-5.689 5.689-11.378 8.533-17.067 0 0 0 0 0 0v0c19.911-36.978 56.889-59.733 99.556-59.733s79.644 22.756 96.711 56.889v0c0 0 0 0 0 0 2.844 5.689 5.689 14.222 8.533 19.911 0 2.844 0 5.689 0 8.533zM787.911 541.867c-8.533 65.422-17.067 130.844-17.067 130.844s-71.111-56.889-71.111-128c0-68.267-76.8-139.378-91.022-125.156s45.511 102.4 11.378 281.6c-31.289 179.2-108.089 258.844-108.089 258.844s8.533-113.778-25.6-221.867c-34.133-108.089-79.644-187.733-119.467-193.422s-45.511 54.044-48.356 99.556 2.844 99.556 2.844 99.556-79.644-102.4-110.933-201.956c-34.133-108.089-28.444-244.622 5.689-329.956 25.6-65.422 59.733-113.778 96.711-147.911 8.533 99.556 93.867 179.2 196.267 179.2 108.089 0 196.267-88.178 196.267-196.267 0-5.689 0-8.533 0-14.222 62.578 34.133 133.689 91.022 133.689 176.356 0 190.578-39.822 236.089-51.2 332.8z" />
<glyph unicode="&#xe626;" d="M750.933 612.978h-85.333v108.089c0 85.333-68.267 153.6-153.6 153.6s-153.6-68.267-153.6-153.6v-108.089h-85.333v108.089c0 130.844 108.089 238.933 238.933 238.933s238.933-108.089 238.933-238.933v-108.089zM881.778 541.867h-739.556l-28.444-517.689c0-31.289 28.444-59.733 62.578-59.733h674.133c34.133 0 62.578 25.6 62.578 59.733l-31.289 517.689zM327.111 351.289c-31.289 0-56.889 25.6-56.889 56.889s25.6 56.889 56.889 56.889 56.889-25.6 56.889-56.889-25.6-56.889-56.889-56.889zM685.511 351.289c-31.289 0-56.889 25.6-56.889 56.889s25.6 56.889 56.889 56.889c31.289 0 56.889-25.6 56.889-56.889s-22.756-56.889-56.889-56.889z" />
<glyph unicode="&#xe627;" d="M145.067 246.044h39.822c19.911 0 34.133 14.222 34.133 34.133v318.578c0 17.067-14.222 28.444-28.444 28.444h-42.667c-82.489 0-147.911-88.178-147.911-193.422 0-102.4 65.422-187.733 145.067-187.733zM878.933 627.2h-39.822c-19.911 0-34.133-14.222-34.133-34.133v-318.578c0-17.067 14.222-28.444 28.444-28.444h42.667c82.489 0 147.911 88.178 147.911 193.422 2.844 102.4-62.578 187.733-145.067 187.733zM913.067 669.867c-36.978 162.133-133.689 290.133-401.067 290.133s-366.933-128-398.222-290.133c14.222 2.844 22.756 2.844 36.978 2.844h34.133c36.978 139.378 128 219.022 335.644 219.022s298.667-79.644 332.8-219.022h34.133c2.844 0 17.067-2.844 25.6-2.844zM910.222 203.378c-8.533-2.844-19.911-2.844-34.133-2.844h-36.978c-8.533-19.911-19.911-39.822-36.978-51.2-34.133-36.978-91.022-59.733-162.133-71.111-14.222 17.067-34.133 25.6-51.2 25.6h-147.911c-36.978 0-68.267-28.444-68.267-71.111 0-39.822 28.444-71.111 68.267-71.111h147.911c28.444 0 51.2 19.911 62.578 42.667 88.178 14.222 156.444 42.667 201.956 88.178 25.6 39.822 42.667 71.111 56.889 110.933z" />
<glyph unicode="&#xe628;" d="M924.444 903.111h-625.778c-56.889 0-99.556-45.511-99.556-102.4v-170.667h-99.556c-56.889 0-99.556-45.511-99.556-102.4v-287.289c0-59.733 45.511-102.4 99.556-102.4h145.067v-113.778c0-14.222 8.533-22.756 19.911-28.444 2.844-2.844 8.533-2.844 14.222-2.844s14.222 2.844 17.067 8.533l167.822 139.378h261.689c56.889 0 99.556 45.511 99.556 102.4v170.667h99.556c56.889 0 99.556 45.511 99.556 102.4v284.444c-2.844 56.889-42.667 102.4-99.556 102.4zM756.622 234.667c0-19.911-17.067-34.133-34.133-34.133h-270.222c-5.689 0-14.222-2.844-19.911-5.689l-116.622-102.4v76.8c0 19.911-17.067 34.133-34.133 34.133h-173.511c-19.911 0-34.133 17.067-34.133 34.133v287.289c0 19.911 17.067 34.133 34.133 34.133 0 0 39.822 0 99.556 0v-45.511c0-59.733 45.511-102.4 99.556-102.4h130.844l167.822-139.378c2.844-5.689 8.533-8.533 17.067-8.533 2.844 0 8.533 0 14.222 2.844 8.533 5.689 19.911 17.067 19.911 28.444v113.778h108.089v-173.511h-8.533zM955.733 507.733c0-17.067-14.222-34.133-34.133-34.133h-304.356c-17.067 0-34.133-14.222-34.133-34.133v-76.8l-116.622 102.4c-5.689 2.844-14.222 5.689-19.911 5.689h-139.378c-17.067 0-34.133 14.222-34.133 34.133v290.133c0 17.067 14.222 34.133 34.133 34.133-2.844 2.844 622.933 2.844 622.933 2.844 17.067 0 34.133-14.222 34.133-34.133v-290.133h-8.533z" />
<glyph unicode="&#xe629;" d="M338.858 438.858q-92.57-2.856-151.43-73.144h-76.57q-46.856 0-78.856 23.144t-32 67.714q0 201.714 70.856 201.714 3.43 0 24.856-12t55.714-24.286 68-12.286q38.286 0 76 13.144-2.858-21.144-2.858-37.714 0-79.428 46.286-146.286zM950.856 74.858q0-68.572-41.714-108.286t-110.856-39.714h-499.428q-69.144 0-110.856 39.714t-41.714 108.286q0 30.286 2 59.144t8 62.286 15.144 62 24.57 55.714 35.43 46.286 48.856 30.572 63.714 11.428q5.714 0 24.572-12.286t41.714-27.428 61.144-27.428 77.144-12.286 77.144 12.286 61.144 27.428 41.714 27.428 24.572 12.286q34.856 0 63.714-11.428t48.856-30.572 35.428-46.286 24.572-55.714 15.144-62 8-62.286 2-59.144zM365.714 804.572q0-60.57-42.858-103.428t-103.43-42.856-103.43 42.856-42.856 103.428 42.856 103.43 103.43 42.856 103.43-42.856 42.856-103.43zM768 585.144q0-90.856-64.286-155.142t-155.144-64.286-155.144 64.286-64.286 155.144 64.286 155.144 155.144 64.286 155.144-64.286 64.286-155.144zM1097.144 456.572q0-44.57-32-67.714t-78.856-23.144h-76.572q-58.856 70.286-151.428 73.144 46.286 66.856 46.286 146.286 0 16.572-2.856 37.714 37.714-13.144 76-13.144 33.714 0 68 12.286t55.714 24.286 24.856 12q70.856 0 70.856-201.714zM1024 804.572q0-60.57-42.856-103.428t-103.428-42.856-103.428 42.856-42.856 103.428 42.856 103.43 103.428 42.856 103.428-42.856 42.856-103.43z" horiz-adv-x="1098" />
<glyph unicode="&#xe62a;" d="M687.002 583.63c13.876 13.722 36.302 13.722 50.126 0 13.876-13.722 13.876-35.89 0-49.612l-200.038-196.096c-13.876-13.722-36.3-13.722-50.126 0l-200.090 196.096c-13.824 13.722-13.824 35.89 0 49.612 13.876 13.722 36.25 13.722 50.126 0l175.002-160.768 175.002 160.768z" />
<glyph unicode="&#xe62b;" d="M389.17 285.798c-13.722-13.876-13.722-36.302 0-50.126 13.67-13.876 35.892-13.876 49.612 0l196.096 200.038c13.722 13.876 13.722 36.302 0 50.126l-196.096 200.090c-13.722 13.876-35.892 13.876-49.612 0s-13.722-36.25-0.050-50.074l160.818-175.054-160.768-175.002z" />
<glyph unicode="&#xe62c;" d="M807.822 677.79c-14.222 14.222-36.978 14.222-51.2 0l-355.556-378.31-119.466 159.288c-11.378 17.068-34.134 19.91-51.2 8.534s-19.912-34.134-8.532-51.2l145.066-193.422c5.69-5.688 11.378-8.534 17.068-11.378 0 0 0 0 0 0 2.844 0 5.69-2.844 8.534-2.844s5.69 0 8.534 0c0 0 2.844 0 2.844 0 5.69 2.844 14.222 5.688 17.068 8.534l384 406.756c17.068 17.068 17.068 39.822 2.844 54.044z" />
<glyph unicode="&#xe62d;" d="M629 266.658l-160.8 175 160.8 175c13.8 13.8 13.8 36.4 0 50.2-13.6 13.8-35.8 13.8-49.6 0l-166.2-169.6-166.4 169.6c-13.8 13.8-35.8 13.8-49.6 0s-13.8-36.2 0-50l160.8-175-160.8-175c-13.8-13.8-13.8-36.4 0-50.2 13.6-13.8 35.8-13.8 49.6 0l166.2 169.6 166.2-169.6c13.8-13.8 35.8-13.8 49.6 0s13.8 36.2 0.2 50z" horiz-adv-x="806" />
<glyph unicode="&#xe647;" d="M391.428 208.572l350.858 350.856q10.856 10.858 10.856 25.714t-10.856 25.714l-58.286 58.286q-10.856 10.856-25.714 10.856t-25.714-10.856l-266.858-266.856-120.57 120.572q-10.856 10.856-25.714 10.856t-25.714-10.856l-58.286-58.286q-10.856-10.856-10.856-25.714t10.856-25.714l204.57-204.572q10.856-10.856 25.714-10.856t25.714 10.856zM877.714 713.144v-548.572q0-68-48.286-116.286t-116.286-48.286h-548.572q-68 0-116.286 48.286t-48.286 116.286v548.572q0 68 48.286 116.286t116.286 48.286h548.572q68 0 116.286-48.286t48.286-116.286z" horiz-adv-x="878" />
<glyph unicode="&#xe65c;" d="M626.856 334.286l-83.428-83.428q-5.714-5.714-13.144-5.714t-13.144 5.714l-78.286 78.286-78.286-78.286q-5.714-5.714-13.144-5.714t-13.144 5.714l-83.43 83.428q-5.714 5.714-5.714 13.144t5.714 13.144l78.286 78.286-78.286 78.286q-5.714 5.714-5.714 13.144t5.714 13.144l83.43 83.428q5.714 5.714 13.144 5.714t13.144-5.714l78.286-78.286 78.286 78.286q5.714 5.714 13.144 5.714t13.144-5.714l83.428-83.428q5.714-5.714 5.714-13.144t-5.714-13.144l-78.286-78.286 78.286-78.286q5.714-5.714 5.714-13.144t-5.714-13.144zM749.714 438.858q0 84.572-41.714 156t-113.144 113.144-156 41.714-156-41.714-113.144-113.144-41.714-156 41.714-156 113.144-113.144 156-41.714 156 41.714 113.144 113.144 41.714 156zM877.714 438.858q0-119.428-58.856-220.286t-159.714-159.714-220.286-58.856-220.286 58.856-159.714 159.714-58.856 220.286 58.856 220.286 159.714 159.714 220.286 58.856 220.286-58.856 159.714-159.714 58.856-220.286z" horiz-adv-x="878" />
<glyph unicode="&#xe663;" d="M219.43 146.286q0-45.714-32-77.714t-77.714-32-77.714 32-32 77.714 32 77.714 77.714 32 77.714-32 32-77.714zM219.43 438.858q0-45.714-32-77.714t-77.714-32-77.714 32-32 77.714 32 77.714 77.714 32 77.714-32 32-77.714zM1024 201.144v-109.714q0-7.428-5.428-12.856t-12.856-5.428h-694.856q-7.428 0-12.856 5.428t-5.428 12.856v109.714q0 7.428 5.428 12.856t12.856 5.428h694.856q7.428 0 12.856-5.428t5.428-12.856zM219.43 731.428q0-45.714-32-77.714t-77.714-32-77.714 32-32 77.714 32 77.714 77.714 32 77.714-32 32-77.714zM1024 493.714v-109.714q0-7.428-5.428-12.856t-12.856-5.428h-694.856q-7.428 0-12.856 5.428t-5.428 12.856v109.714q0 7.428 5.428 12.858t12.856 5.428h694.856q7.428 0 12.856-5.428t5.428-12.856zM1024 786.286v-109.714q0-7.428-5.428-12.856t-12.856-5.428h-694.856q-7.428 0-12.856 5.428t-5.428 12.856v109.714q0 7.428 5.428 12.858t12.856 5.428h694.856q7.428 0 12.856-5.428t5.428-12.858z" />
<glyph unicode="&#xe668;" d="M283.428 182.858q0-34.286-24.286-58.286t-58-24q-34.286 0-58.286 24t-24 58.286 24 58.286 58.286 24q33.714 0 58-24t24.286-58.286zM530.286 73.144q0-30.286-21.428-51.714t-51.714-21.428-51.714 21.428-21.428 51.714 21.428 51.714 51.714 21.428 51.714-21.428 21.428-51.714zM182.856 438.858q0-37.714-26.856-64.572t-64.57-26.856-64.57 26.856-26.856 64.572 26.856 64.572 64.57 26.856 64.57-26.856 26.856-64.572zM777.144 182.858q0-26.286-18.856-45.144t-45.144-18.856-45.144 18.856-18.856 45.144 18.856 45.144 45.144 18.856 45.144-18.856 18.856-45.144zM301.714 694.858q0-41.714-29.428-71.144t-71.144-29.428-71.144 29.428-29.43 71.144 29.43 71.144 71.144 29.428 71.144-29.428 29.428-71.144zM566.856 804.572q0-45.714-32-77.714t-77.714-32-77.714 32-32 77.714 32 77.714 77.714 32 77.714-32 32-77.714zM877.714 438.858q0-22.856-16-38.856t-38.856-16-38.856 16-16 38.856 16 38.856 38.856 16 38.856-16 16-38.856zM758.856 694.858q0-18.856-13.428-32.286t-32.286-13.428-32.286 13.428-13.428 32.286 13.428 32.286 32.286 13.428 32.286-13.428 13.428-32.286z" horiz-adv-x="896" />
<glyph unicode="&#xe66d;" d="M438.858 73.144v365.714l-361.142 361.142c-16.458 16.456-24.686 31.314-24.686 44.572 0 8.686 3.43 15.77 10.286 20.8s14.17 8.458 21.714 10.058 15.772 2.286 24.686 2.286h804.572c8.686 0 16.914-0.686 24.686-2.286s14.856-4.8 21.714-10.058 10.286-12.114 10.286-20.8c0-13.258-8.23-28.114-24.686-44.572l-361.144-361.142v-438.856z" />
<glyph unicode="&#xe66f;" d="M658.286 475.428q0 105.714-75.144 180.856t-180.856 75.142-180.856-75.142-75.144-180.856 75.144-180.856 180.856-75.144 180.856 75.144 75.144 180.856zM950.856 0q0-29.714-21.714-51.428t-51.428-21.714q-30.856 0-51.428 21.714l-196 195.428q-102.286-70.856-228-70.856-81.714 0-156.286 31.714t-128.57 85.714-85.714 128.572-31.714 156.286 31.714 156.286 85.714 128.57 128.57 85.714 156.286 31.714 156.286-31.714 128.572-85.714 85.714-128.57 31.714-156.286q0-125.714-70.856-228l196-196q21.144-21.144 21.144-51.428z" horiz-adv-x="952" />
<glyph unicode="&#xe671;" d="M512 0q-14.856 0-25.144 10.286l-356.572 344q-5.714 4.572-15.714 14.856t-31.714 37.428-38.856 55.714-30.572 69.144-13.43 78.856q0 125.714 72.57 196.57t200.57 70.858q35.428 0 72.286-12.286t68.57-33.142 54.572-39.144 43.428-38.856q20.572 20.57 43.428 38.856t54.572 39.144 68.572 33.142 72.286 12.286q128 0 200.572-70.858t72.572-196.57q0-126.286-130.856-257.144l-356-342.856q-10.286-10.286-25.144-10.286z" />
<glyph unicode="&#xe673;" d="M804.572 148q0-68.572-41.714-108.286t-110.856-39.714h-499.428q-69.144 0-110.856 39.714t-41.714 108.286q0 30.286 2 59.144t8 62.286 15.144 62 24.57 55.714 35.43 46.286 48.856 30.572 63.714 11.428q5.144 0 24-12.286t42.57-27.428 61.714-27.428 76.286-12.286 76.286 12.286 61.714 27.428 42.572 27.428 24 12.286q34.856 0 63.714-11.428t48.856-30.57 35.428-46.286 24.572-55.714 15.144-62 8-62.286 2-59.144zM621.714 658.286q0-90.856-64.286-155.144t-155.144-64.286-155.144 64.286-64.286 155.144 64.286 155.142 155.144 64.286 155.144-64.286 64.286-155.142z" horiz-adv-x="806" />
<glyph unicode="&#xe676;" d="M585.144 493.714v-36.57q0-7.428-5.428-12.856t-12.856-5.428h-128v-128q0-7.428-5.428-12.856t-12.856-5.428h-36.572q-7.428 0-12.856 5.428t-5.428 12.856v128h-128q-7.43 0-12.856 5.428t-5.43 12.856v36.572q0 7.428 5.43 12.856t12.856 5.428h128v128q0 7.428 5.428 12.856t12.856 5.428h36.572q7.428 0 12.856-5.428t5.428-12.856v-128h128q7.428 0 12.856-5.428t5.428-12.856zM658.286 475.428q0 105.714-75.144 180.856t-180.856 75.142-180.856-75.142-75.144-180.856 75.144-180.856 180.856-75.144 180.856 75.144 75.144 180.856zM950.856 0q0-30.286-21.428-51.714t-51.714-21.43q-30.856 0-51.428 21.714l-196 195.428q-102.286-70.856-228-70.856-81.714 0-156.286 31.714t-128.57 85.714-85.714 128.572-31.714 156.286 31.714 156.286 85.714 128.57 128.57 85.714 156.286 31.714 156.286-31.714 128.572-85.714 85.714-128.57 31.714-156.286q0-125.714-70.856-228l196-196q21.144-21.144 21.144-51.428z" horiz-adv-x="952" />
<glyph unicode="&#xe677;" d="M585.144 493.714v-36.57q0-7.428-5.428-12.856t-12.856-5.428h-329.142q-7.43 0-12.856 5.428t-5.43 12.856v36.572q0 7.428 5.43 12.856t12.856 5.428h329.142q7.428 0 12.856-5.428t5.428-12.856zM658.286 475.428q0 105.714-75.144 180.856t-180.856 75.142-180.856-75.142-75.144-180.856 75.144-180.856 180.856-75.144 180.856 75.144 75.144 180.856zM950.856 0q0-30.286-21.428-51.714t-51.714-21.43q-30.856 0-51.428 21.714l-196 195.428q-102.286-70.856-228-70.856-81.714 0-156.286 31.714t-128.57 85.714-85.714 128.572-31.714 156.286 31.714 156.286 85.714 128.57 128.57 85.714 156.286 31.714 156.286-31.714 128.572-85.714 85.714-128.57 31.714-156.286q0-125.714-70.856-228l196-196q21.144-21.144 21.144-51.428z" horiz-adv-x="952" />
<glyph unicode="&#xe680;" d="M877.714 804.572v-256q0-14.856-10.856-25.714t-25.714-10.856h-256q-24 0-33.714 22.856-9.714 22.286 8 39.428l78.856 78.856q-84.572 78.286-199.428 78.286-59.428 0-113.428-23.144t-93.43-62.57-62.57-93.428-23.144-113.428 23.144-113.428 62.57-93.428 93.43-62.572 113.428-23.144q68 0 128.572 29.714t102.286 84q4 5.714 13.144 6.856 8 0 14.286-5.144l78.286-78.856q5.144-4.572 5.428-11.714t-4.286-12.856q-62.286-75.428-150.856-116.856t-186.856-41.428q-89.144 0-170.286 34.856t-140 93.714-93.714 140-34.856 170.286 34.856 170.286 93.714 140 140 93.714 170.286 34.856q84 0 162.572-31.714t139.714-89.43l74.286 73.714q16.572 17.714 40 8 22.286-9.714 22.286-33.714z" horiz-adv-x="878" />
<glyph unicode="&#xe682;" d="M182.856 512h292.572v109.714q0 60.572-42.856 103.428t-103.428 42.856-103.43-42.856-42.856-103.428v-109.714zM658.286 457.144v-329.142q0-22.856-16-38.856t-38.856-16h-548.572q-22.856 0-38.856 16t-16 38.856v329.142q0 22.858 16 38.858t38.856 16h18.286v109.714q0 105.144 75.43 180.572t180.57 75.428 180.57-75.428 75.428-180.572v-109.714h18.286q22.856 0 38.856-16t16-38.856z" horiz-adv-x="658" />
<glyph unicode="&#xe689;" d="M665.144 877.714q13.144 0 25.144-5.144 18.856-7.428 30-23.428t11.144-35.428v-736.572q0-19.428-11.144-35.428t-30-23.428q-10.856-4.572-25.144-4.572-27.428 0-47.428 18.286l-252 242.286-252-242.286q-20.57-18.856-47.43-18.856-13.144 0-25.144 5.144-18.856 7.428-30 23.428t-11.144 35.428v736.572q0 19.428 11.144 35.428t30 23.428q12 5.144 25.144 5.144h598.856z" horiz-adv-x="732" />
<glyph unicode="&#xe693;" d="M365.714 621.714q0-45.714-32-77.714t-77.714-32-77.714 32-32 77.714 32 77.714 77.714 32 77.714-32 32-77.714zM950.856 402.286v-256h-804.572v109.714l182.856 182.856 91.428-91.428 292.572 292.572zM1005.714 804.572h-914.286q-7.43 0-12.856-5.428t-5.43-12.856v-694.856q0-7.428 5.43-12.856t12.856-5.428h914.286q7.428 0 12.856 5.428t5.428 12.856v694.856q0 7.428-5.428 12.856t-12.856 5.428zM1097.144 786.286v-694.856q0-37.714-26.856-64.572t-64.572-26.856h-914.286q-37.714 0-64.57 26.856t-26.856 64.572v694.856q0 37.714 26.856 64.572t64.57 26.856h914.286q37.714 0 64.572-26.856t26.856-64.572z" horiz-adv-x="1098" />
<glyph unicode="&#xe695;" d="M804.572 385.714v-148q0-68-48.286-116.286t-116.286-48.286h-475.428q-68 0-116.286 48.286t-48.286 116.286v475.428q0 68 48.286 116.286t116.286 48.286h145.714q7.428 0 12.858-5.43t5.428-12.856q0-15.428-14.856-18.286-44-14.858-76-34.286-5.714-2.286-9.144-2.286h-64q-37.714 0-64.57-26.856t-26.856-64.572v-475.428q0-37.714 26.856-64.572t64.57-26.856h475.428q37.714 0 64.572 26.856t26.856 64.572v122.286q0 10.856 10.286 16.572 16 7.428 30.856 21.144 9.144 9.144 20 4.572 12-5.144 12-16.572zM940 669.144l-219.428-219.428q-10.286-10.856-25.714-10.856-6.856 0-14.286 2.856-22.286 9.714-22.286 33.714v109.714h-91.428q-184.572 0-250.286-74.856-68-78.286-42.286-270.286 1.714-13.144-11.428-19.428-4.572-1.144-6.856-1.144-9.144 0-14.856 7.428-5.714 8-12 17.714t-22.57 39.144-28.286 56.856-22 65.144-10 69.714q0 28 2 52t8 51.43 16 50.286 26.856 46.572 39.144 42.286 54 35.144 71.144 27.714 91.144 17.428 112.286 6.286h91.428v109.714q0 24 22.286 33.714 7.428 2.858 14.286 2.858 14.856 0 25.714-10.858l219.428-219.428q10.856-10.856 10.856-25.714t-10.856-25.714z" horiz-adv-x="952" />
<glyph unicode="&#xe69f;" d="M694.856 402.286v73.144q0 14.856-10.856 25.714t-25.714 10.858h-146.286v146.286q0 14.858-10.856 25.714t-25.714 10.856h-73.142q-14.856 0-25.714-10.856t-10.858-25.714v-146.286h-146.286q-14.856 0-25.714-10.856t-10.856-25.714v-73.142q0-14.856 10.856-25.714t25.714-10.856h146.286v-146.286q0-14.856 10.856-25.714t25.714-10.856h73.142q14.856 0 25.714 10.856t10.858 25.714v146.286h146.286q14.856 0 25.714 10.856t10.856 25.714zM877.714 438.858q0-119.428-58.856-220.286t-159.714-159.714-220.286-58.856-220.286 58.856-159.714 159.714-58.856 220.286 58.856 220.286 159.714 159.714 220.286 58.856 220.286-58.856 159.714-159.714 58.856-220.286z" horiz-adv-x="878" />
<glyph unicode="&#xe6a0;" d="M694.856 402.286v73.144q0 14.856-10.856 25.714t-25.714 10.858h-438.858q-14.856 0-25.714-10.856t-10.856-25.714v-73.142q0-14.856 10.856-25.714t25.714-10.856h438.858q14.856 0 25.714 10.856t10.856 25.714zM877.714 438.858q0-119.428-58.856-220.286t-159.714-159.714-220.286-58.856-220.286 58.856-159.714 159.714-58.856 220.286 58.856 220.286 159.714 159.714 220.286 58.856 220.286-58.856 159.714-159.714 58.856-220.286z" horiz-adv-x="878" />
<glyph unicode="&#xe6a1;" d="M656.572 309.714q0 14.856-10.856 25.714l-103.428 103.428 103.428 103.428q10.856 10.856 10.856 25.714 0 15.428-10.856 26.286l-51.428 51.428q-10.856 10.856-26.286 10.856-14.856 0-25.714-10.856l-103.428-103.428-103.428 103.428q-10.856 10.856-25.714 10.856-15.428 0-26.286-10.856l-51.43-51.428q-10.856-10.856-10.856-26.286 0-14.856 10.856-25.714l103.43-103.428-103.43-103.428q-10.856-10.856-10.856-25.714 0-15.428 10.856-26.286l51.43-51.428q10.856-10.856 26.286-10.856 14.858 0 25.714 10.856l103.428 103.428 103.428-103.428q10.856-10.856 25.714-10.856 15.428 0 26.286 10.856l51.428 51.428q10.856 10.856 10.856 26.286zM877.714 438.858q0-119.428-58.856-220.286t-159.714-159.714-220.286-58.856-220.286 58.856-159.714 159.714-58.856 220.286 58.856 220.286 159.714 159.714 220.286 58.856 220.286-58.856 159.714-159.714 58.856-220.286z" horiz-adv-x="878" />
<glyph unicode="&#xe6a2;" d="M512 164.572v109.714q0 8-5.142 13.144t-13.142 5.144h-109.714q-8 0-13.142-5.144t-5.142-13.144v-109.714q0-8 5.142-13.144t13.144-5.144h109.714q8 0 13.142 5.144t5.144 13.144zM658.286 548.572q0 50.286-31.714 93.144t-79.144 66.286-97.144 23.428q-138.856 0-212-121.714-8.57-13.714 4.57-24l75.43-57.144q4-3.428 10.856-3.428 9.144 0 14.286 6.856 30.286 38.858 49.142 52.572 19.428 13.714 49.144 13.714 27.428 0 48.856-14.856t21.428-33.714q0-21.714-11.428-34.856t-38.856-25.714q-36-16-66-49.428t-30-71.714v-20.572q0-8 5.142-13.144t13.142-5.144h109.714q8 0 13.142 5.144t5.144 13.144q0 10.856 12.286 28.286t31.144 28.286q18.286 10.286 28 16.286t26.286 20 25.428 27.428 16 34.572 7.144 46.286zM877.714 438.858q0-119.428-58.856-220.286t-159.714-159.714-220.286-58.856-220.286 58.856-159.714 159.714-58.856 220.286 58.856 220.286 159.714 159.714 220.286 58.856 220.286-58.856 159.714-159.714 58.856-220.286z" horiz-adv-x="878" />
<glyph unicode="&#xe6a3;" d="M585.144 164.572v91.428q0 8-5.144 13.144t-13.144 5.144h-54.856v292.572q0 8-5.142 13.144t-13.142 5.142h-182.856q-8 0-13.144-5.142t-5.142-13.144v-91.428q0-8 5.142-13.144t13.144-5.144h54.856v-182.856h-54.856q-8 0-13.144-5.144t-5.142-13.144v-91.428q0-8 5.142-13.144t13.144-5.144h256q8 0 13.144 5.144t5.144 13.144zM512 676.572v91.43q0 8-5.142 13.142t-13.142 5.144h-109.714q-8 0-13.142-5.144t-5.142-13.142v-91.43q0-8 5.142-13.142t13.144-5.144h109.714q8 0 13.142 5.144t5.144 13.144zM877.714 438.858q0-119.428-58.856-220.286t-159.714-159.714-220.286-58.856-220.286 58.856-159.714 159.714-58.856 220.286 58.856 220.286 159.714 159.714 220.286 58.856 220.286-58.856 159.714-159.714 58.856-220.286z" horiz-adv-x="878" />
<glyph unicode="&#xe702;" d="M438.858 749.714c-56.456 0-108.344-13.942-155.886-41.6s-85.258-65.6-113.144-113.142-41.83-99.658-41.83-156.114 13.944-108.342 41.6-155.886 65.6-85.258 113.142-113.144 99.656-41.828 156.114-41.828 108.342 13.942 155.886 41.6 85.258 65.6 113.144 113.144 41.828 99.658 41.828 156.114-13.942 108.342-41.6 155.886-65.6 85.256-113.144 113.142-99.656 41.83-156.114 41.83zM877.714 438.858c0-79.544-19.658-153.144-58.972-220.342s-92.572-120.456-159.77-159.77-140.572-58.744-220.114-58.744-153.144 19.658-220.342 58.972-120.456 92.572-159.77 159.77-58.744 140.572-58.744 220.114 19.658 153.144 58.97 220.342 92.57 120.456 159.77 159.77 140.572 58.744 220.114 58.744 153.144-19.658 220.342-58.972 120.456-92.572 159.77-159.772 58.744-140.57 58.744-220.114zM621.714 457.144v-36.57c0-5.028-1.828-9.144-5.486-12.8s-8-5.486-12.8-5.486h-329.142c-5.028 0-9.142 1.828-12.8 5.486s-5.486 8-5.486 12.8v36.572c0 5.028 1.83 9.144 5.486 12.8s8 5.486 12.8 5.486h329.142c5.028 0 9.144-1.828 12.8-5.486s5.486-7.77 5.486-12.8z" horiz-adv-x="878" />
<glyph unicode="&#xe703;" d="M438.858 402.286v-219.428q0-45.714-32-77.714t-77.714-32h-219.43q-45.714 0-77.714 32t-32 77.714v402.286q0 59.43 23.144 113.428t62.57 93.43 93.43 62.57 113.428 23.144h36.572q14.856 0 25.714-10.856t10.858-25.714v-73.144q0-14.856-10.856-25.714t-25.714-10.856h-36.57q-60.57 0-103.43-42.856t-42.856-103.428v-18.286q0-22.856 16-38.856t38.856-16h128q45.714 0 77.714-32t32-77.714zM950.856 402.286v-219.428q0-45.714-32-77.714t-77.714-32h-219.428q-45.714 0-77.714 32t-32 77.714v402.286q0 59.43 23.144 113.428t62.572 93.43 93.428 62.57 113.428 23.144h36.572q14.856 0 25.714-10.856t10.856-25.714v-73.144q0-14.856-10.856-25.714t-25.714-10.856h-36.572q-60.572 0-103.428-42.856t-42.856-103.428v-18.286q0-22.856 16-38.856t38.856-16h128q45.714 0 77.714-32t32-77.714z" horiz-adv-x="952" />
<glyph unicode="&#xe704;" d="M438.858 768v-402.286q0-59.428-23.142-113.428t-62.572-93.428-93.428-62.572-113.43-23.144h-36.57q-14.856 0-25.714 10.856t-10.856 25.714v73.144q0 14.856 10.856 25.714t25.714 10.856h36.57q60.57 0 103.43 42.856t42.856 103.428v18.286q0 22.856-16 38.856t-38.856 16h-128q-45.714 0-77.714 32t-32 77.714v219.43q0 45.714 32 77.714t77.714 32h219.43q45.714 0 77.714-32t32-77.714zM950.856 768v-402.286q0-59.428-23.144-113.428t-62.572-93.428-93.428-62.572-113.428-23.144h-36.572q-14.856 0-25.714 10.856t-10.856 25.714v73.144q0 14.856 10.856 25.714t25.714 10.856h36.572q60.572 0 103.428 42.856t42.856 103.428v18.286q0 22.856-16 38.856t-38.856 16h-128q-45.714 0-77.714 32t-32 77.714v219.43q0 45.714 32 77.714t77.714 32h219.428q45.714 0 77.714-32t32-77.714z" horiz-adv-x="952" />
<glyph unicode="&#xe748;" d="M927.812 960h-288.562c-52.906 0-126.796-30.606-164.204-68.014l-446.99-446.99c-37.408-37.408-37.408-98.624 0-136.032l344.91-344.906c37.408-37.41 98.622-37.41 136.030 0l446.99 446.988c37.408 37.41 68.014 111.302 68.014 164.204v288.562c0 52.904-43.286 96.188-96.188 96.188zM800 640c-53.020 0-96 42.98-96 96s42.98 96 96 96 96-42.98 96-96-42.98-96-96-96z" />
<glyph unicode="&#xe752;" d="M585.144 438.858q0 60.572-42.856 103.428t-103.428 42.856-103.428-42.856-42.856-103.428 42.856-103.428 103.428-42.856 103.428 42.856 42.856 103.428zM877.714 501.144v-126.856q0-6.856-4.572-13.144t-11.428-7.428l-105.714-16q-10.856-30.856-22.286-52 20-28.572 61.144-78.856 5.714-6.856 5.714-14.286t-5.144-13.144q-15.428-21.144-56.572-61.714t-53.714-40.572q-6.856 0-14.856 5.144l-78.856 61.714q-25.144-13.144-52-21.714-9.144-77.714-16.572-106.286-4-16-20.572-16h-126.856q-8 0-14 4.856t-6.572 12.286l-16 105.144q-28 9.144-51.428 21.144l-80.57-61.144q-5.714-5.144-14.286-5.144-8 0-14.286 6.286-72 65.144-94.286 96-4 5.714-4 13.144 0 6.856 4.57 13.144 8.57 12 29.144 38t30.856 40.286q-15.43 28.572-23.43 56.572l-104.57 15.428q-7.43 1.144-12 7.144t-4.57 13.428v126.856q0 6.856 4.57 13.144t10.856 7.428l106.286 16q8 26.286 22.286 52.572-22.856 32.572-61.144 78.856-5.714 6.856-5.714 13.714 0 5.714 5.144 13.144 14.856 20.572 56.286 61.428t54 40.856q7.43 0 14.856-5.714l78.856-61.144q25.144 13.144 52 21.714 9.144 77.714 16.572 106.286 4 16 20.572 16h126.856q8 0 14-4.856t6.572-12.286l16-105.142q28-9.144 51.428-21.144l81.144 61.144q5.144 5.142 13.714 5.142 7.428 0 14.286-5.714 73.714-68 94.286-97.144 4-4.572 4-12.572 0-6.856-4.572-13.142-8.572-12-29.144-38t-30.856-40.286q14.856-28.572 23.428-56l104.572-16q7.428-1.142 12-7.142t4.572-13.428z" horiz-adv-x="878" />
<glyph unicode="&#xe754;" d="M219.43 274.286v-36.572q0-7.428-5.43-12.856t-12.856-5.428h-36.57q-7.43 0-12.856 5.428t-5.43 12.856v36.572q0 7.428 5.43 12.856t12.856 5.428h36.57q7.43 0 12.856-5.428t5.43-12.856zM219.43 420.572v-36.572q0-7.428-5.43-12.856t-12.856-5.428h-36.57q-7.43 0-12.856 5.428t-5.43 12.856v36.572q0 7.428 5.43 12.856t12.856 5.428h36.57q7.43 0 12.856-5.428t5.43-12.856zM219.43 566.858v-36.572q0-7.428-5.43-12.856t-12.856-5.428h-36.57q-7.43 0-12.856 5.428t-5.43 12.856v36.572q0 7.428 5.43 12.856t12.856 5.428h36.57q7.43 0 12.856-5.428t5.43-12.856zM877.714 274.286v-36.572q0-7.428-5.428-12.856t-12.856-5.428h-548.572q-7.428 0-12.856 5.428t-5.428 12.856v36.572q0 7.428 5.428 12.856t12.856 5.428h548.572q7.428 0 12.856-5.428t5.428-12.856zM877.714 420.572v-36.572q0-7.428-5.428-12.856t-12.856-5.428h-548.572q-7.428 0-12.856 5.428t-5.428 12.856v36.572q0 7.428 5.428 12.856t12.856 5.428h548.572q7.428 0 12.856-5.428t5.428-12.856zM877.714 566.858v-36.572q0-7.428-5.428-12.856t-12.856-5.428h-548.572q-7.428 0-12.856 5.428t-5.428 12.856v36.572q0 7.428 5.428 12.856t12.856 5.428h548.572q7.428 0 12.856-5.428t5.428-12.856zM950.856 164.572v475.428q0 7.428-5.428 12.856t-12.856 5.428h-841.144q-7.43 0-12.856-5.428t-5.43-12.856v-475.428q0-7.428 5.43-12.856t12.856-5.428h841.144q7.428 0 12.856 5.428t5.428 12.856zM1024 786.286v-621.714q0-37.714-26.856-64.572t-64.572-26.856h-841.144q-37.714 0-64.57 26.856t-26.856 64.572v621.714q0 37.714 26.856 64.572t64.57 26.856h841.144q37.714 0 64.572-26.856t26.856-64.572z" />
<glyph unicode="&#xe755;" d="M219.43 73.144h512v146.286h-512v-146.286zM219.43 438.858h512v219.428h-91.428q-22.856 0-38.856 16t-16 38.856v91.428h-365.714v-365.714zM877.714 402.286q0 14.856-10.856 25.714t-25.714 10.856-25.714-10.856-10.856-25.714 10.856-25.714 25.714-10.856 25.714 10.856 10.856 25.714zM950.856 402.286v-237.714q0-7.428-5.428-12.856t-12.856-5.428h-128v-91.428q0-22.856-16-38.856t-38.856-16h-548.572q-22.856 0-38.856 16t-16 38.856v91.428h-128q-7.43 0-12.856 5.428t-5.43 12.856v237.714q0 45.144 32.286 77.428t77.43 32.286h36.57v310.858q0 22.856 16 38.856t38.856 16h384q22.856 0 50.286-11.428t43.428-27.43l86.856-86.856q16-16 27.428-43.428t11.428-50.286v-146.286h36.572q45.144 0 77.428-32.286t32.286-77.428z" horiz-adv-x="952" />
<glyph unicode="&#xe756;" d="M704 320c-64-64-64-128-128-128s-128 64-192 128-128 128-128 192 64 64 128 128-128 256-192 256-192-192-192-192c0-128 131.5-387.5 256-512s384-256 512-256c0 0 192 128 192 192s-192 256-256 192z" />
<glyph unicode="&#xe758;" d="M733.714 531.428q0 16-10.286 26.286l-52 51.43q-10.856 10.856-25.714 10.856t-25.714-10.856l-233.144-232.572-129.144 129.144q-10.856 10.856-25.714 10.856t-25.714-10.856l-52-51.428q-10.286-10.286-10.286-26.286 0-15.428 10.286-25.714l206.856-206.856q10.856-10.856 25.714-10.856 15.428 0 26.286 10.856l310.286 310.286q10.286 10.286 10.286 25.714zM877.714 438.858q0-119.428-58.856-220.286t-159.714-159.714-220.286-58.856-220.286 58.856-159.714 159.714-58.856 220.286 58.856 220.286 159.714 159.714 220.286 58.856 220.286-58.856 159.714-159.714 58.856-220.286z" horiz-adv-x="878" />
<glyph unicode="&#xe759;" d="M438.858 402.286v-256q0-14.856-10.858-25.714t-25.714-10.856-25.714 10.856l-82.286 82.286-189.714-189.714q-5.714-5.714-13.144-5.714t-13.144 5.714l-65.144 65.144q-5.714 5.714-5.714 13.144t5.714 13.144l189.714 189.714-82.286 82.286q-10.856 10.856-10.856 25.714t10.856 25.714 25.714 10.856h256q14.856 0 25.714-10.856t10.858-25.714zM870.286 786.286q0-7.428-5.714-13.144l-189.714-189.714 82.286-82.286q10.856-10.856 10.856-25.714t-10.856-25.714-25.714-10.856h-256q-14.856 0-25.714 10.856t-10.858 25.714v256q0 14.856 10.856 25.714t25.714 10.856 25.714-10.856l82.286-82.286 189.714 189.714q5.714 5.714 13.144 5.714t13.144-5.714l65.144-65.144q5.714-5.714 5.714-13.144z" horiz-adv-x="878" />
<glyph unicode="&#xe766;" d="M320 576h128v-128h-128zM512 576h128v-128h-128zM704 576h128v-128h-128zM128 192h128v-128h-128zM320 192h128v-128h-128zM512 192h128v-128h-128zM320 384h128v-128h-128zM512 384h128v-128h-128zM704 384h128v-128h-128zM128 384h128v-128h-128zM832 960v-64h-128v64h-448v-64h-128v64h-128v-1024h960v1024h-128zM896 0h-832v704h832v-704z" />
<glyph unicode="&#xe7ae;" d="M128 64h896v-128h-1024v1024h128zM288 128c-53.020 0-96 42.98-96 96s42.98 96 96 96c2.828 0 5.622-0.148 8.388-0.386l103.192 171.986c-9.84 15.070-15.58 33.062-15.58 52.402 0 53.020 42.98 96 96 96s96-42.98 96-96c0-19.342-5.74-37.332-15.58-52.402l103.192-171.986c2.766 0.238 5.56 0.386 8.388 0.386 2.136 0 4.248-0.094 6.35-0.23l170.356 298.122c-10.536 15.408-16.706 34.036-16.706 54.11 0 53.020 42.98 96 96 96s96-42.98 96-96c0-53.020-42.98-96-96-96-2.14 0-4.248 0.094-6.35 0.232l-170.356-298.124c10.536-15.406 16.706-34.036 16.706-54.11 0-53.020-42.98-96-96-96s-96 42.98-96 96c0 19.34 5.74 37.332 15.578 52.402l-103.19 171.984c-2.766-0.238-5.56-0.386-8.388-0.386s-5.622 0.146-8.388 0.386l-103.192-171.986c9.84-15.068 15.58-33.060 15.58-52.4 0-53.020-42.98-96-96-96z" />
<glyph unicode="&#xe7ba;" d="M512 6.656c-246.784 0-447.488 200.704-447.488 447.488s200.704 447.488 447.488 447.488c246.784 0 447.488-200.704 447.488-447.488s-200.704-447.488-447.488-447.488zM512 815.616c-199.68 0-361.472-161.792-361.472-361.472s162.816-361.472 361.472-361.472c199.68 0 361.472 161.792 361.472 361.472s-161.792 361.472-361.472 361.472zM418.816 650.752c0-27.146-22.006-49.152-49.152-49.152s-49.152 22.006-49.152 49.152c0 27.146 22.006 49.152 49.152 49.152s49.152-22.006 49.152-49.152zM561.152 695.808c0-27.146-22.006-49.152-49.152-49.152s-49.152 22.006-49.152 49.152c0 27.146 22.006 49.152 49.152 49.152s49.152-22.006 49.152-49.152zM703.488 650.752c0-27.146-22.006-49.152-49.152-49.152s-49.152 22.006-49.152 49.152c0 27.146 22.006 49.152 49.152 49.152s49.152-22.006 49.152-49.152zM578.56 299.52c0-34.816-27.648-62.464-62.464-62.464s-62.464 27.648-62.464 62.464c0 34.816 39.936 236.544 62.464 236.544 21.504 1.024 62.464-201.728 62.464-236.544z" />
<glyph unicode="&#xe7de;" d="M512 768c-223.318 0-416.882-130.042-512-320 95.118-189.958 288.682-320 512-320 223.314 0 416.878 130.042 512 320-95.116 189.958-288.686 320-512 320zM764.45 598.296c60.162-38.374 111.142-89.774 149.434-150.296-38.292-60.522-89.274-111.922-149.436-150.298-75.594-48.216-162.89-73.702-252.448-73.702-89.56 0-176.856 25.486-252.45 73.704-60.16 38.372-111.14 89.772-149.434 150.296 38.292 60.524 89.274 111.924 149.434 150.296 3.918 2.5 7.876 4.922 11.858 7.3-9.958-27.328-15.408-56.822-15.408-87.596 0-141.384 114.616-256 256-256s256 114.616 256 256c0 30.774-5.45 60.268-15.408 87.598 3.98-2.378 7.938-4.802 11.858-7.302zM512 550c0-53.020-42.98-96-96-96s-96 42.98-96 96 42.98 96 96 96 96-42.98 96-96z" />
<glyph unicode="&#xe854;" d="M0 768h1024v-64h-1024zM0 640h704v-64h-704zM0 512h1024v-64h-1024zM0 384h704v-64h-704zM0 256h1024v-64h-1024zM0 128h704v-64h-704z" />
<glyph unicode="&#xe867;" d="M1024 765.582c-37.676-16.708-78.164-28.002-120.66-33.080 43.372 26 76.686 67.17 92.372 116.23-40.596-24.078-85.556-41.56-133.41-50.98-38.32 40.83-92.922 66.34-153.346 66.34-116.022 0-210.088-94.058-210.088-210.078 0-16.466 1.858-32.5 5.44-47.878-174.6 8.764-329.402 92.4-433.018 219.506-18.084-31.028-28.446-67.116-28.446-105.618 0-72.888 37.088-137.192 93.46-174.866-34.438 1.092-66.832 10.542-95.154 26.278-0.020-0.876-0.020-1.756-0.020-2.642 0-101.788 72.418-186.696 168.522-206-17.626-4.8-36.188-7.372-55.348-7.372-13.538 0-26.698 1.32-39.528 3.772 26.736-83.46 104.32-144.206 196.252-145.896-71.9-56.35-162.486-89.934-260.916-89.934-16.958 0-33.68 0.994-50.116 2.94 92.972-59.61 203.402-94.394 322.042-94.394 386.422 0 597.736 320.124 597.736 597.744 0 9.108-0.206 18.168-0.61 27.18 41.056 29.62 76.672 66.62 104.836 108.748z" />
<glyph unicode="&#xe868;" d="M853.342 960h-682.656c-93.874 0-170.686-76.81-170.686-170.69v-682.622c0-93.938 76.812-170.688 170.686-170.688h682.656c93.876 0 170.658 76.75 170.658 170.69v682.62c0 93.88-76.782 170.69-170.658 170.69zM838.052 618.166c0.328-7.342 0.49-14.728 0.49-22.148 0-226.214-169.216-487.068-478.658-487.068-95.004 0-183.434 28.348-257.886 76.918 13.16-1.588 26.552-2.394 40.13-2.394 78.822 0 151.358 27.37 208.934 73.282-73.616 1.38-135.744 50.876-157.154 118.882 10.274-2 20.812-3.074 31.652-3.074 15.344 0 30.206 2.096 44.32 6.008-76.96 15.732-134.95 84.916-134.95 167.856 0 0.722 0 1.438 0.016 2.152 22.68-12.82 48.624-20.52 76.2-21.41-45.142 30.698-74.842 83.092-74.842 142.488 0 31.37 8.294 60.778 22.778 86.058 82.974-103.57 206.936-171.72 346.754-178.862-2.87 12.532-4.358 25.596-4.358 39.014 0 94.538 75.326 171.18 168.23 171.18 48.39 0 92.118-20.786 122.802-54.058 38.32 7.676 74.324 21.92 106.832 41.542-12.562-39.976-39.234-73.522-73.966-94.71 34.026 4.138 66.452 13.34 96.62 26.954-22.546-34.324-51.070-64.476-83.944-88.61z" />
<glyph unicode="&#xe8bd;" d="M0 768h1024v-64h-1024zM192 640h640v-64h-640zM192 384h640v-64h-640zM192 128h640v-64h-640zM0 512h1024v-64h-1024zM0 256h1024v-64h-1024z" />
<glyph unicode="&#xe8be;" d="M0 768h1024v-64h-1024zM320 640h704v-64h-704zM0 512h1024v-64h-1024zM320 384h704v-64h-704zM0 256h1024v-64h-1024zM320 128h704v-64h-704z" />
<glyph unicode="&#xe8c2;" d="M559.066 896c0 0-200.956 0-267.94 0-120.12 0-233.17-91.006-233.17-196.422 0-107.726 81.882-194.666 204.088-194.666 8.498 0 16.756 0.17 24.842 0.752-7.93-15.186-13.602-32.288-13.602-50.042 0-29.938 16.104-54.21 36.468-74.024-15.386 0-30.242-0.448-46.452-0.448-148.782 0.002-263.3-94.758-263.3-193.020 0-96.778 125.542-157.314 274.334-157.314 169.624 0 263.306 96.244 263.306 193.028 0 77.6-22.896 124.072-93.686 174.134-24.216 17.144-70.53 58.836-70.53 83.344 0 28.72 8.196 42.868 51.428 76.646 44.312 34.624 75.672 83.302 75.672 139.916 0 67.406-30.020 133.098-86.372 154.772h84.954l59.96 43.344zM465.48 240.542c2.126-8.972 3.284-18.206 3.284-27.628 0-78.2-50.392-139.31-194.974-139.31-102.842 0-177.116 65.104-177.116 143.3 0 76.642 92.126 140.444 194.964 139.332 24-0.254 46.368-4.116 66.67-10.69 55.826-38.826 95.876-60.762 107.172-105.004zM300.818 532.224c-69.038 2.064-134.636 77.226-146.552 167.86-11.916 90.666 34.37 160.042 103.388 157.99 69.010-2.074 134.638-74.814 146.558-165.458 11.906-90.66-34.39-162.458-103.394-160.392zM832 704v192h-64v-192h-192v-64h192v-192h64v192h192v64z" />
<glyph unicode="&#xe8c4;" d="M0.806 90.336c-0.244 2.532-0.452 5.070-0.584 7.63 0.13-2.56 0.34-5.098 0.584-7.63zM235.908 394.852c92.010-2.738 153.734 92.698 137.862 213.198-15.894 120.48-103.396 217.168-195.408 219.922-92.026 2.73-153.74-89.482-137.852-210 15.882-120.468 103.352-220.374 195.398-223.12zM1024 704v85.31c0 93.88-76.782 170.69-170.658 170.69h-682.656c-92.276 0-168.012-74.232-170.564-165.926 58.362 51.386 139.324 94.316 222.874 94.316 89.304 0 357.244 0 357.244 0l-79.948-67.618h-113.268c75.13-28.804 115.156-116.124 115.156-205.722 0-75.248-41.81-139.954-100.888-185.968-57.644-44.902-68.572-63.708-68.572-101.878 0-32.578 61.746-88 94.032-110.788 94.382-66.538 124.916-128.312 124.916-231.456 0-16.428-2.042-32.83-6.066-48.96h307.742c93.874 0 170.656 76.75 170.656 170.69v533.308h-192v-191.998h-64v192h-191.998v64h191.998v192h64v-192h192zM185.886 194.064c21.614 0 41.422 0.59 61.936 0.59-27.146 26.334-48.626 58.6-48.626 98.38 0 23.608 7.564 46.336 18.134 66.52-10.782-0.77-21.79-0.994-33.126-0.994-74.356 0-137.506 24.076-184.204 63.854v-67.242l0.006-201.73c53.44 25.374 116.888 40.622 185.88 40.622zM3.42 72.742c-1.112 5.458-1.966 11.006-2.542 16.634 0.574-5.628 1.43-11.176 2.542-16.634zM455.45 7.154c-15.058 58.806-68.454 87.964-142.888 139.568-27.072 8.732-56.894 13.874-88.894 14.208-89.618 0.964-173.108-34.942-220.216-88.372 15.92-77.706 85.034-136.558 167.234-136.558h286.444c1.816 11.128 2.696 22.632 2.696 34.432 0 12.534-1.534 24.792-4.376 36.722z" />
<glyph unicode="&#xe8d6;" d="M608.876 306.532c-17.282-17.426-2.668-49.128-2.668-49.128l130.090-217.218c0 0 21.36-28.64 39.864-28.64 18.59 0 36.954 15.27 36.954 15.27l102.844 147.008c0 0 10.36 18.546 10.598 34.792 0.372 23.106-34.454 29.434-34.454 29.434l-243.488 78.192c-0.002-0.004-23.858 6.328-39.74-9.71zM596.532 416.016c12.46-21.128 46.828-14.972 46.828-14.972l242.938 71.006c0 0 33.106 13.466 37.832 31.418 4.64 17.954-5.46 39.622-5.46 39.622l-116.098 136.752c0 0-10.062 17.292-30.938 19.032-23.016 1.958-37.18-25.898-37.18-25.898l-137.27-216.010c0-0.004-12.134-21.516-0.652-40.95zM481.754 500.232c28.608 7.044 33.148 48.604 33.148 48.604l-1.944 345.87c0 0-4.314 42.666-23.486 54.232-30.070 18.242-38.982 8.718-47.596 7.444l-201.696-74.944c0 0-19.754-6.536-30.042-23.018-14.69-23.352 14.928-57.544 14.928-57.544l209.644-285.756c0 0 20.69-21.396 47.044-14.888zM431.944 360.262c0.722 26.676-32.030 42.7-32.030 42.7l-216.796 109.524c0 0-32.126 13.246-47.722 4.016-11.95-7.060-22.536-19.84-23.572-31.134l-14.12-173.812c0 0-2.116-30.114 5.69-43.82 11.054-19.442 47.428-5.902 47.428-5.902l253.096 55.942c9.832 6.61 27.074 7.204 28.026 42.486zM494.88 266.458c-21.726 11.156-47.724-11.95-47.724-11.95l-169.468-186.566c0 0-21.144-28.528-15.768-46.050 5.066-16.418 13.454-24.578 25.318-30.328l170.192-53.726c0 0 20.634-4.286 36.258 0.242 22.18 6.43 18.094 41.152 18.094 41.152l3.848 252.602c-0.002-0.002-0.868 24.334-20.75 34.624z" />
<glyph unicode="&#xea3e;" d="M950.856 581.144q0-12.572-14.856-27.428l-207.428-202.286 49.144-285.714q0.572-4 0.572-11.428 0-12-6-20.286t-17.428-8.286q-10.856 0-22.856 6.856l-256.572 134.856-256.572-134.856q-12.57-6.856-22.856-6.856-12 0-18 8.286t-6 20.286q0 3.428 1.144 11.428l49.144 285.714-208 202.286q-14.286 15.428-14.286 27.428 0 21.144 32 26.286l286.856 41.714 128.572 260q10.856 23.428 28 23.428t28-23.428l128.572-260 286.858-41.714q32-5.144 32-26.286z" horiz-adv-x="952" />
<glyph unicode="&#xea3f;" d="M649.714 377.144l174.856 169.714-241.144 35.43-108 218.286-108-218.286-241.144-35.428 174.856-169.714-41.714-240.572 216 113.714 215.428-113.714zM950.856 581.144q0-12.572-14.856-27.428l-207.428-202.286 49.144-285.714q0.572-4 0.572-11.428 0-28.572-23.428-28.572-10.856 0-22.856 6.856l-256.572 134.856-256.572-134.856q-12.57-6.856-22.856-6.856-12 0-18 8.286t-6 20.286q0 3.428 1.144 11.428l49.144 285.714-208 202.286q-14.286 15.428-14.286 27.428 0 21.144 32 26.286l286.856 41.714 128.572 260q10.856 23.428 28 23.428t28-23.428l128.572-260 286.858-41.714q32-5.144 32-26.286z" horiz-adv-x="952" />
<glyph unicode="&#xeae9;" d="M877.714 713.144v-548.572q0-68-48.286-116.286t-116.286-48.286h-548.572q-68 0-116.286 48.286t-48.286 116.286v548.572q0 68 48.286 116.286t116.286 48.286h548.572q68 0 116.286-48.286t48.286-116.286z" horiz-adv-x="878" />
<glyph unicode="&#xeb25;" d="M1024 384v475.428q0 7.428-5.428 12.856t-12.856 5.428h-914.286q-7.43 0-12.856-5.428t-5.43-12.856v-475.428q0-7.428 5.43-12.856t12.856-5.428h914.286q7.428 0 12.856 5.428t5.428 12.856zM1097.144 859.428v-621.714q0-37.714-26.856-64.572t-64.572-26.856h-310.858q0-21.144 9.144-44.286t18.286-40.572 9.144-24.856q0-14.856-10.856-25.714t-25.714-10.856h-292.572q-14.856 0-25.714 10.856t-10.858 25.714q0 8 9.144 25.144t18.286 40 9.142 44.572h-310.858q-37.714 0-64.57 26.856t-26.856 64.572v621.714q0 37.714 26.856 64.572t64.57 26.856h914.286q37.714 0 64.57-26.856t26.856-64.572z" horiz-adv-x="1098" />
<glyph unicode="&#xeb26;" d="M237.714 219.428q-37.714 0-64.57 26.856t-26.856 64.572v402.286q0 37.714 26.856 64.572t64.57 26.856h621.714q37.714 0 64.572-26.856t26.856-64.572v-402.286q0-37.714-26.856-64.572t-64.572-26.856h-621.714zM219.43 713.144v-402.286q0-7.428 5.43-12.856t12.856-5.428h621.714q7.428 0 12.856 5.428t5.428 12.856v402.286q0 7.428-5.428 12.858t-12.856 5.428h-621.714q-7.43 0-12.856-5.428t-5.43-12.858zM1005.714 182.858h91.428v-54.856q0-22.856-26.856-38.856t-64.572-16h-914.286q-37.714 0-64.57 16t-26.856 38.856v54.856h1005.714zM594.286 128q9.144 0 9.144 9.144t-9.144 9.144h-91.428q-9.144 0-9.144-9.144t9.144-9.144h91.428z" horiz-adv-x="1098" />
<glyph unicode="&#xeb27;" d="M365.714 146.286q0 14.856-10.858 25.714t-25.714 10.856-25.714-10.856-10.856-25.714 10.856-25.714 25.714-10.856 25.714 10.856 10.856 25.714zM585.144 237.714v548.572q0 7.428-5.428 12.856t-12.856 5.428h-475.428q-7.43 0-12.856-5.428t-5.43-12.856v-548.572q0-7.428 5.43-12.856t12.856-5.428h475.428q7.428 0 12.856 5.428t5.428 12.856zM658.286 786.286v-621.714q0-37.714-26.856-64.572t-64.572-26.856h-475.428q-37.714 0-64.57 26.856t-26.856 64.572v621.714q0 37.714 26.856 64.572t64.57 26.856h475.428q37.714 0 64.572-26.856t26.856-64.572z" horiz-adv-x="658" />
<glyph unicode="&#xeb28;" d="M265.142 146.286q0 18.856-13.43 32.286t-32.286 13.428-32.286-13.428-13.43-32.286 13.43-32.286 32.286-13.428 32.286 13.428 13.43 32.286zM384 237.714v402.286q0 7.428-5.428 12.858t-12.856 5.428h-292.572q-7.43 0-12.856-5.428t-5.43-12.856v-402.286q0-7.428 5.43-12.856t12.856-5.428h292.572q7.428 0 12.856 5.428t5.428 12.856zM274.286 722.286q0 9.144-9.142 9.144h-91.43q-9.144 0-9.144-9.144t9.144-9.144h91.43q9.144 0 9.144 9.144zM438.858 731.428v-585.142q0-29.714-21.714-51.428t-51.428-21.714h-292.572q-29.714 0-51.43 21.714t-21.714 51.428v585.144q0 29.714 21.714 51.428t51.43 21.714h292.572q29.714 0 51.428-21.714t21.714-51.428z" horiz-adv-x="440" />
<glyph unicode="&#xeb2d;" d="M877.714 438.858q0-119.428-58.856-220.286t-159.714-159.714-220.286-58.856-220.286 58.856-159.714 159.714-58.856 220.286 58.856 220.286 159.714 159.714 220.286 58.856 220.286-58.856 159.714-159.714 58.856-220.286z" horiz-adv-x="878" />
<glyph unicode="&#xeb3e;" d="M677.714 404l146.856 142.856-241.144 35.428-17.144 34.286-90.856 184v-550.286l33.714-17.714 181.714-96-34.286 202.856-6.856 37.714zM936 553.714l-207.428-202.286 49.144-285.714q2.856-18.856-3.428-29.428t-19.428-10.572q-9.714 0-22.856 6.856l-256.572 134.856-256.572-134.856q-13.144-6.856-22.856-6.856-13.144 0-19.43 10.572t-3.43 29.428l49.144 285.714-208 202.286q-18.286 18.286-13.144 34t30.856 19.714l286.858 41.714 128.572 260q11.428 23.428 28 23.428 16 0 28-23.428l128.572-260 286.858-41.714q25.714-4 30.856-19.714t-13.714-34z" horiz-adv-x="952" />
<glyph unicode="&#xeb4a;" d="M658.286 548.572v-73.142q0-126.286-84.286-219.714t-208.286-107.144v-75.428h146.286q14.856 0 25.714-10.856t10.856-25.714-10.856-25.714-25.714-10.856h-365.714q-14.856 0-25.714 10.856t-10.856 25.714 10.856 25.714 25.714 10.856h146.286v75.428q-124 13.714-208.286 107.144t-84.286 219.714v73.144q0 14.856 10.856 25.714t25.714 10.858 25.714-10.856 10.856-25.714v-73.142q0-105.714 75.144-180.856t180.856-75.144 180.856 75.144 75.144 180.856v73.144q0 14.856 10.856 25.714t25.714 10.858 25.714-10.856 10.856-25.714zM512 768v-292.572q0-75.428-53.714-129.144t-129.142-53.714-129.144 53.714-53.714 129.144v292.572q0 75.428 53.714 129.142t129.144 53.714 129.144-53.714 53.714-129.142z" horiz-adv-x="658" />
<glyph unicode="&#xeb6d;" d="M558.856 273.714q0-87.428-56.856-150.572t-147.714-78v-100q0-8-5.142-13.144t-13.144-5.142h-77.144q-7.43 0-12.856 5.428t-5.43 12.858v100q-37.714 5.144-72.856 17.714t-58 25.428-42.286 27.428-26.57 21.428-10 10.286q-9.714 12-1.144 23.428l58.856 77.144q4 5.714 13.144 6.856 8.57 1.144 13.714-5.144l1.144-1.144q64.57-56.572 138.856-71.428 21.144-4.572 42.286-4.572 46.286 0 81.428 24.572t35.144 69.714q0 16-8.572 30.286t-19.144 24-33.428 21.428-37.714 18.286-45.714 18.572q-22.286 9.144-35.144 14.286t-35.144 15.144-35.714 17.714-32.286 20.286-30.57 24.286-24.856 28-20.286 33.144-12 38-4.856 44.572q0 78.856 56 138.286t145.714 76.572v102.856q0 7.43 5.43 12.856t12.858 5.43h77.144q8 0 13.144-5.144t5.142-13.144v-100.57q32.57-3.43 63.142-13.144t49.714-19.144 36.286-21.428 22.286-16.572 8.572-8q9.714-10.286 2.856-21.714l-46.286-83.43q-4.572-8.572-13.142-9.142-8-1.714-15.428 4-1.714 1.714-8.286 6.856t-22.286 15.144-33.428 18.286-42.572 14.856-48.856 6.572q-54.286 0-88.57-24.572t-34.286-63.428q0-14.856 4.856-27.428t16.856-23.714 22.57-18.856 32-17.714 34.572-15.428 40-15.714q30.286-11.428 46.286-18t43.43-20 43.144-24.286 35.428-28.572 30.286-36.286 18-43.714 7.428-53.714z" horiz-adv-x="586" />
<glyph unicode="&#xeba5;" d="M81.612 702.158c24.986-13.466 371.15-199.372 384.050-206.286 12.85-6.912 29.542-10.24 46.336-10.24 16.846 0 33.536 3.328 46.386 10.29 12.902 6.912 359.014 192.818 384 206.286 25.038 13.414 48.692 55.552 2.764 55.552h-866.254c-45.926 0-22.324-42.138 2.714-55.602zM952.986 599.758c-28.416-14.848-377.19-197.172-394.598-206.286s-29.542-10.292-46.386-10.292c-16.794 0-28.928 1.178-46.336 10.292s-366.234 191.488-394.598 206.286c-20.018 10.444-19.866-1.792-19.866-11.214s0-375.552 0-375.552c0-21.504 28.62-49.152 50.79-49.152h820.070c22.222 0 50.74 27.648 50.74 49.1 0 0 0 366.13 0 375.552 0 9.472 0.206 21.71-19.814 11.264z" />
<glyph unicode="&#xebb8;" d="M768 307.2c-35.226 0-67.482-11.93-93.39-31.846l-267.214 160.308c1.28 8.192 2.202 16.59 2.202 25.14 0 8.602-0.922 16.948-2.202 25.14l267.214 160.308c25.908-19.918 58.164-31.846 93.39-31.846 84.788 0 153.6 68.762 153.6 153.6s-68.812 153.6-153.6 153.6-153.6-68.762-153.6-153.6c0-8.55 0.922-16.948 2.254-25.14l-267.214-160.358c-25.906 19.968-58.214 31.898-93.44 31.898-84.838 0-153.6-68.762-153.6-153.6 0-84.788 68.762-153.6 153.6-153.6 35.226 0 67.534 11.93 93.44 31.846l267.214-160.308c-1.332-8.192-2.254-16.538-2.254-25.14 0-84.788 68.812-153.6 153.6-153.6s153.6 68.812 153.6 153.6-68.812 153.6-153.6 153.6z" />
<glyph unicode="&#xebc3;" d="M944.6 599.6l-412.8 250c-11.4 7-25.8 7-37.2 0l-413.2-250c-17-10.2-22.4-32.4-12.2-49.4 6.8-11.2 18.6-17.4 30.8-17.4 6.4 0 12.8 1.6 18.6 5.2l18.6 11.2v-370.4c0-59.6 48.4-108 108-108h132.8v354c0 19.8 16.2 36 36 36h196c19.8 0 36-16.2 36-36v-354h135.2c59.6 0 108 48.4 108 108v370.2l18.2-11c17-10.4 39.2-4.8 49.4 12.2s4.8 39-12.2 49.4zM817.2 178.8c0-19.8-16.2-36-36-36h-63.2v282c0 59.6-48.4 108-108 108h-196c-59.6 0-108-48.4-108-108v-282h-60.8c-19.8 0-36 16.2-36 36v414l304 184 304-184.2v-413.8z" />
<glyph unicode="&#xebdf;" d="M102.4 48c-16 0-32 6.4-41.6 19.2-9.6 9.6-12.8 25.6-12.8 41.6v406.4c0 185.6 150.4 336 336 336h262.4c185.6 0 336-150.4 336-336s-150.4-336-336-336h-262.4c-32 0-99.2-41.6-147.2-70.4-64-41.6-99.2-60.8-134.4-60.8 0 0 0 0 0 0zM380.8 768c-140.8 0-256-115.2-256-256v-377.6c19.2 9.6 44.8 25.6 67.2 38.4 67.2 41.6 134.4 83.2 188.8 83.2h262.4c140.8 0 256 115.2 256 256s-115.2 256-256 256h-262.4zM249.6 636.8h22.4v-201.6c0-22.4 9.6-25.6 19.2-25.6 3.2 0 6.4 0 6.4 0v-22.4c0 0-3.2 0-9.6 0-16 0-41.6 3.2-41.6 44.8v204.8zM419.2 569.6c51.2 0 92.8-38.4 92.8-92.8s-41.6-92.8-92.8-92.8-92.8 41.6-92.8 92.8c-3.2 54.4 38.4 92.8 92.8 92.8zM419.2 406.4c38.4 0 70.4 32 70.4 73.6s-32 70.4-70.4 70.4c-38.4 0-70.4-28.8-70.4-70.4s32-73.6 70.4-73.6zM534.4 566.4h25.6l41.6-131.2c3.2-9.6 6.4-19.2 6.4-19.2v0c0 0 3.2 9.6 6.4 19.2l44.8 131.2h22.4l44.8-131.2c3.2-9.6 6.4-19.2 6.4-19.2v0c0 0 3.2 9.6 6.4 19.2l41.6 131.2h25.6l-60.8-176h-25.6l-44.8 124.8c-3.2 9.6-6.4 19.2-6.4 19.2v0c0 0-3.2-9.6-6.4-19.2l-44.8-124.8h-25.6l-57.6 176z" />
<glyph unicode="&#xebe0;" d="M102.4 48c-16 0-32 6.4-41.6 19.2-9.6 9.6-12.8 25.6-12.8 41.6v406.4c0 185.6 150.4 336 336 336h262.4c185.6 0 336-150.4 336-336s-150.4-336-336-336h-262.4c-32 0-99.2-41.6-147.2-70.4-67.2-41.6-102.4-60.8-134.4-60.8v0zM380.8 768c-140.8 0-256-115.2-256-256v-377.6c19.2 9.6 44.8 25.6 67.2 38.4 67.2 41.6 134.4 83.2 188.8 83.2h262.4c140.8 0 256 115.2 256 256s-115.2 256-256 256h-262.4zM665.6 540.8c-16 16-44.8 16-60.8 0l-48-48v169.6c0 22.4-19.2 41.6-41.6 41.6s-41.6-19.2-41.6-41.6v-169.6l-48 48c-16 16-44.8 16-60.8 0s-16-44.8 0-60.8l118.4-118.4c9.6-9.6 19.2-12.8 32-12.8 9.6 0 22.4 3.2 32 12.8l118.4 118.4c16 19.2 16 44.8 0 60.8z" />
<glyph unicode="&#xebe1;" d="M102.4 48c-16 0-32 6.4-41.6 19.2-9.6 9.6-12.8 25.6-12.8 41.6v406.4c0 185.6 150.4 336 336 336h262.4c185.6 0 336-150.4 336-336s-150.4-336-336-336h-262.4c-32 0-99.2-41.6-147.2-70.4-67.2-41.6-102.4-60.8-134.4-60.8 0 0 0 0 0 0zM380.8 768c-140.8 0-256-115.2-256-256v-377.6c19.2 9.6 44.8 25.6 67.2 38.4 67.2 41.6 134.4 83.2 188.8 83.2h262.4c140.8 0 256 115.2 256 256s-115.2 256-256 256h-262.4zM656 502.4v0c0-22.4-19.2-41.6-41.6-41.6h-201.6c-22.4 0-41.6 19.2-41.6 41.6v0c0 22.4 19.2 41.6 41.6 41.6h201.6c22.4 0 41.6-19.2 41.6-41.6z" />
<glyph unicode="&#xebe2;" d="M102.4 48c-16 0-32 6.4-41.6 19.2-9.6 9.6-12.8 25.6-12.8 41.6v406.4c0 185.6 150.4 336 336 336h262.4c185.6 0 336-150.4 336-336s-150.4-336-336-336h-262.4c-32 0-99.2-41.6-147.2-70.4-67.2-41.6-102.4-60.8-134.4-60.8 0 0 0 0 0 0zM380.8 768c-140.8 0-256-115.2-256-256v-377.6c19.2 9.6 44.8 25.6 67.2 38.4 67.2 41.6 134.4 83.2 188.8 83.2h262.4c140.8 0 256 115.2 256 256s-115.2 256-256 256h-262.4zM614.4 560h-57.6v57.6c0 22.4-19.2 41.6-41.6 41.6s-41.6-19.2-41.6-41.6v-57.6h-57.6c-22.4 0-41.6-19.2-41.6-41.6s19.2-41.6 41.6-41.6h57.6v-60.8c0-22.4 19.2-41.6 41.6-41.6s41.6 19.2 41.6 41.6v57.6h57.6c22.4 0 41.6 19.2 41.6 41.6s-19.2 44.8-41.6 44.8z" />
<glyph unicode="&#xebe3;" d="M918.4 489.6h-48c-19.2 166.4-150.4 297.6-316.8 316.8v48c0 22.4-19.2 41.6-41.6 41.6s-41.6-19.2-41.6-41.6v-48c-166.4-19.2-297.6-150.4-316.8-316.8h-48c-22.4 0-41.6-19.2-41.6-41.6s19.2-41.6 41.6-41.6h48c19.2-166.4 150.4-297.6 316.8-316.8v-48c0-22.4 19.2-41.6 41.6-41.6s41.6 19.2 41.6 41.6v48c166.4 19.2 297.6 150.4 316.8 316.8h48c22.4 0 41.6 19.2 41.6 41.6s-16 41.6-41.6 41.6zM553.6 169.6v41.6c0 22.4-19.2 41.6-41.6 41.6s-41.6-19.2-41.6-41.6v-41.6c-121.6 19.2-217.6 115.2-236.8 236.8h41.6c22.4 0 41.6 19.2 41.6 41.6s-19.2 41.6-41.6 41.6h-41.6c19.2 121.6 115.2 217.6 236.8 236.8v-41.6c0-22.4 19.2-41.6 41.6-41.6s41.6 19.2 41.6 41.6v41.6c121.6-19.2 217.6-115.2 236.8-236.8h-41.6c-22.4 0-41.6-19.2-41.6-41.6s19.2-41.6 41.6-41.6h41.6c-16-121.6-115.2-220.8-236.8-236.8z" />
<glyph unicode="&#xebe4;" d="M928 32h-832c-16 0-28.8 6.4-35.2 19.2s-9.6 28.8 0 41.6l396.8 764.8c6.4 12.8 22.4 22.4 35.2 22.4 16 0 28.8-6.4 38.4-22.4l432-764.8c6.4-12.8 6.4-28.8 0-41.6s-22.4-19.2-35.2-19.2zM166.4 115.2h691.2l-361.6 636.8-329.6-636.8zM502.4 313.6v0c-22.4 0-41.6 19.2-41.6 41.6v156.8c0 22.4 19.2 41.6 41.6 41.6v0c22.4 0 41.6-19.2 41.6-41.6v-153.6c0-25.6-19.2-44.8-41.6-44.8zM547.2 236.8c0-24.742-20.058-44.8-44.8-44.8s-44.8 20.058-44.8 44.8c0 24.742 20.058 44.8 44.8 44.8s44.8-20.058 44.8-44.8z" />
<glyph unicode="&#xebe5;" d="M841.6 745.6h-86.4c-6.4 70.4-64 124.8-134.4 124.8h-211.2c-70.4 0-128-54.4-134.4-124.8h-92.8c-73.6 0-134.4-60.8-134.4-134.4v-428.8c0-73.6 60.8-134.4 134.4-134.4h656c73.6 0 134.4 60.8 134.4 134.4v428.8c3.2 73.6-57.6 134.4-131.2 134.4zM406.4 790.4h211.2c28.8 0 51.2-19.2 54.4-44.8h-320c3.2 25.6 25.6 44.8 54.4 44.8zM896 179.2c0-32-25.6-57.6-57.6-57.6h-656c-32 0-57.6 25.6-57.6 57.6v432c0 32 25.6 57.6 57.6 57.6h656c32 0 57.6-25.6 57.6-57.6v-432zM614.4 438.4h-57.6v57.6c0 22.4-19.2 41.6-41.6 41.6s-41.6-19.2-41.6-41.6v-57.6h-57.6c-22.4 0-41.6-19.2-41.6-41.6s19.2-41.6 41.6-41.6h57.6v-57.6c0-22.4 19.2-41.6 41.6-41.6s41.6 19.2 41.6 41.6v54.4h57.6c22.4 0 41.6 19.2 41.6 41.6s-19.2 44.8-41.6 44.8z" />
<glyph unicode="&#xebe6;" d="M803.2 54.4h-83.2c0 0-3.2 0-3.2 3.2v243.2c0 25.6 19.2 44.8 44.8 44.8v0c25.6 0 44.8-19.2 44.8-44.8l-3.2-246.4c3.2 0 3.2 0 0 0zM633.6 54.4h-83.2c0 0-3.2 0-3.2 3.2v342.4c0 25.6 19.2 44.8 44.8 44.8v0c25.6 0 44.8-19.2 44.8-44.8l-3.2-345.6c3.2 0 3.2 0 0 0zM464 54.4h-83.2c0 0-3.2 0-3.2 3.2v438.4c0 25.6 19.2 44.8 44.8 44.8v0c25.6 0 44.8-19.2 44.8-44.8l-3.2-441.6c3.2 0 3.2 0 0 0zM294.4 54.4h-83.2c0 0-3.2 0-3.2 3.2v569.6c0 25.6 19.2 44.8 44.8 44.8v0c25.6 0 44.8-19.2 44.8-44.8l-3.2-572.8c3.2 0 3.2 0 0 0zM812.8 470.4c0 6.4 0 12.8 0 16l-32 150.4c-3.2 22.4-25.6 35.2-48 32s-35.2-25.6-32-48l12.8-54.4-406.4 268.8c-19.2 12.8-44.8 6.4-57.6-12.8s-9.6-44.8 12.8-57.6l486.4-326.4c6.4-3.2 12.8-6.4 19.2-6.4 3.2 0 6.4 0 9.6 0s3.2 0 6.4 0c0 0 3.2 0 3.2 0 12.8 6.4 25.6 19.2 25.6 38.4z" />
<glyph unicode="&#xebe7;" d="M211.2 54.4h83.2c0 0 3.2 0 3.2 3.2v243.2c0 25.6-19.2 44.8-44.8 44.8v0c-25.6 0-44.8-19.2-44.8-44.8l3.2-246.4c0 0 0 0 0 0zM380.8 54.4h83.2c0 0 3.2 0 3.2 3.2v342.4c0 25.6-19.2 44.8-44.8 44.8v0c-25.6 0-44.8-19.2-44.8-44.8l3.2-345.6c0 0 0 0 0 0zM550.4 54.4h83.2c0 0 3.2 0 3.2 3.2v438.4c0 25.6-19.2 44.8-44.8 44.8v0c-25.6 0-44.8-19.2-44.8-44.8l3.2-441.6c0 0 0 0 0 0zM720 54.4h83.2c0 0 3.2 0 3.2 3.2v569.6c0 25.6-19.2 44.8-44.8 44.8v0c-25.6 0-44.8-19.2-44.8-44.8l3.2-572.8c0 0 0 0 0 0zM780.8 780.8c0 3.2 0 3.2 0 6.4s0 3.2 0 6.4c-3.2 16-16 28.8-32 32l-156.8 28.8c-22.4 3.2-41.6-9.6-44.8-32s9.6-41.6 32-44.8l54.4-9.6-403.2-272c-19.2-12.8-25.6-38.4-12.8-57.6s38.4-25.6 57.6-12.8l486.4 323.2c12.8 6.4 19.2 19.2 19.2 32 0 0 0 0 0 0z" />
<glyph unicode="&#xebe8;" d="M512 336v0c-22.4 0-41.6 19.2-41.6 41.6v150.4c0 22.4 19.2 41.6 41.6 41.6v0c22.4 0 41.6-19.2 41.6-41.6v-150.4c0-22.4-19.2-41.6-41.6-41.6zM556.8 240c0-24.742-20.058-44.8-44.8-44.8s-44.8 20.058-44.8 44.8c0 24.742 20.058 44.8 44.8 44.8s44.8-20.058 44.8-44.8zM643.2 905.6h-355.2c-70.4 0-128-57.6-128-128v-656c0-70.4 57.6-128 128-128h448c70.4 0 128 57.6 128 128v544l-220.8 240zM649.6 787.2l108.8-118.4h-108.8v118.4zM736 67.2h-448c-28.8 0-54.4 22.4-54.4 54.4v652.8c0 28.8 22.4 54.4 54.4 54.4h294.4v-169.6c0-32 28.8-60.8 60.8-60.8h144v-480c3.2-28.8-22.4-51.2-51.2-51.2z" />
<glyph unicode="&#xebe9;" d="M512 35.2c-227.2 0-412.8 185.6-412.8 412.8s185.6 412.8 412.8 412.8 412.8-185.6 412.8-412.8-185.6-412.8-412.8-412.8zM512 780.8c-182.4 0-332.8-150.4-332.8-332.8s150.4-332.8 332.8-332.8c182.4 0 332.8 150.4 332.8 332.8s-150.4 332.8-332.8 332.8zM630.4 377.6l-76.8 76.8v185.6c0 22.4-19.2 41.6-41.6 41.6s-41.6-19.2-41.6-41.6v-201.6c0-12.8 6.4-22.4 16-32 0 0 0-3.2 3.2-3.2l83.2-83.2c16-16 44.8-16 60.8 0 12.8 12.8 12.8 41.6-3.2 57.6z" />
<glyph unicode="&#xebf2;" d="M141.466 278.426c-77.516-76.186-12.032-154.418-115.046-270.386-46.49-52.326 191.386-36.352 309.248 79.514 49.972 49.1 35.892 120.73-17.714 173.466-53.606 52.684-126.514 66.51-176.486 17.408zM1000.5 939.11c-39.782 39.066-480.204-313.856-611.328-442.726-65.074-63.95-86.784-98.254-106.752-123.904-8.654-11.162 2.816-14.592 7.936-17.254 25.754-13.106 43.776-25.294 67.122-48.23 23.346-22.886 35.788-40.602 49.1-65.946 2.662-5.068 6.194-16.332 17.51-7.782 26.112 19.61 60.978 40.96 126.002 104.908 131.122 128.87 490.086 561.818 450.406 600.934z" />
<glyph unicode="&#xec10;" d="M35.328 392.602l69.786-17.306 52.532 82.534-99.84 24.73c-24.986 6.246-50.226-8.908-56.422-33.792-6.196-24.782 9.010-49.972 33.946-56.166zM946.226 379.29l-228.506-205.722-268.698 207.924c-5.12 3.994-11.008 6.81-17.306 8.398l-35.788 8.806-52.532-82.484 56.27-13.876 291.738-225.69c8.448-6.606 18.482-9.778 28.57-9.778 11.212 0 22.426 3.994 31.232 11.98l257.382 231.68c19.098 17.202 20.53 46.49 3.328 65.486-17.152 18.996-46.592 20.48-65.69 3.278zM444.62 605.134l250.214-160.206c21.094-13.466 49.152-7.884 63.438 12.646l257.434 370.79c14.592 21.094 9.318 49.92-11.826 64.512s-50.126 9.268-64.768-11.776l-231.834-333.926-251.75 161.178c-10.394 6.656-23.040 8.908-35.174 6.246s-22.63-9.984-29.236-20.428l-383.846-602.574c-13.824-21.606-7.374-50.176 14.336-63.898 7.732-4.914 16.384-7.22 24.934-7.22 15.412 0 30.464 7.578 39.322 21.504l358.758 563.15z" />
<glyph unicode="&#xec11;" d="M459.060 860.262c-197.324-23.45-353.69-179.866-377.14-377.138h377.14v377.138zM566.938 859.494v-432.896c0-28.366-22.99-51.354-51.404-51.354h-432.896c27.698-211.712 208.538-375.194 427.726-375.194 238.388 0 431.718 193.23 431.718 431.718 0 219.188-163.482 400.026-375.142 427.726z" />
<glyph unicode="&#xec12;" d="M870.4 921.6h-112.64c-28.262 0-40.96-22.938-40.96-51.2v-870.4h204.8v870.4c0 28.262-22.886 51.2-51.2 51.2zM563.2 614.4h-112.64c-28.262 0-40.96-22.938-40.96-51.2v-563.2h204.8v563.2c0 28.262-22.886 51.2-51.2 51.2zM256 307.2h-112.64c-28.262 0-40.96-22.886-40.96-51.2v-256h204.8v256c0 28.314-22.938 51.2-51.2 51.2z" />
<glyph unicode="&#xec13;" d="M997.786 850.586l-237.004-386.098c-8.806-14.284-26.010-16.64-38.298-5.172l-114.586 107.314c-12.288 11.468-29.9 9.42-39.22-4.608l-160.922-242.688c-9.266-13.978-27.034-16.178-39.476-4.914l-74.906 68.404c-12.442 11.316-31.18 9.83-41.676-3.226l-235.98-294.298c-10.548-13.158-5.376-23.86 11.366-23.86h986.674v784.64c0.052 16.846-7.168 18.894-15.974 4.506z" />
<glyph unicode="&#xec20;" d="M778.188 512h-532.428c-28.314 0-30.72-22.938-30.72-51.2s2.406-51.2 30.72-51.2h532.428c28.314 0 30.77 22.938 30.77 51.2s-2.458 51.2-30.77 51.2z" />
<glyph unicode="&#xec21;" d="M778.188 512h-215.040v215.040c0 28.262-22.886 30.72-51.2 30.72-28.262 0-51.2-2.406-51.2-30.72v-215.040h-214.99c-28.314 0-30.72-22.938-30.72-51.2s2.406-51.2 30.72-51.2h214.99v-215.040c0-28.262 22.938-30.72 51.2-30.72 28.314 0 51.2 2.458 51.2 30.72v215.040h215.040c28.314 0 30.77 22.938 30.77 51.2s-2.458 51.2-30.77 51.2z" />
<glyph unicode="&#xec3d;" d="M876.8 605.542l-104.754 288.562c-7.73 21.298-30.464 32.562-50.638 25.19l-696.166-254.106c-20.224-7.322-30.414-30.566-22.682-51.866l110.438-304.23v163.072c0 73.574 58.778 133.376 131.122 133.376h183.962l219.392 154.010 126.976-154.010h102.35zM984.986 513.178h-740.864c-21.504 0-39.014-18.382-39.014-41.062v-482.356c0-22.63 17.46-41.062 39.014-41.062h740.864c21.554 0 39.014 18.38 39.014 41.062v482.406c0 22.63-17.458 41.010-39.014 41.010zM928.462 51.354h-614.144v88.014l94.464 219.904 141.772-175.974 132.966 136.294 170.956 61.696 73.984-164.966v-164.966z" />
<glyph unicode="&#xec40;" d="M976.384 614.4h-928.768c-47.104 0-49.51-22.938-46.9-50.996l42.24-461.21c2.56-28.058 9.216-50.996 56.268-50.996h825.6c48.026 0 53.71 22.938 56.27 50.996l42.24 461.21c2.51 28.058 0.206 50.996-46.95 50.996zM942.284 727.040c-5.632 22.528-33.536 40.96-61.9 40.96h-348.876c-28.416 0-68.046 16.23-88.166 36.146l-30.514 30.106c-20.070 19.916-59.75 36.146-88.116 36.146h-166.706c-28.366 0-54.17-22.886-57.294-50.892l-14.95-133.428h866.866l-10.342 40.96z" />
<glyph unicode="&#xec42;" d="M173.516 567.706l56.422-497.1c3.020-23.602 116.992-101.222 282.062-101.326 165.068 0.102 279.092 77.722 282.112 101.326l56.422 497.102c-86.222-48.23-215.092-71.066-338.534-71.066s-252.314 22.834-338.484 71.066zM674.15 874.906l-43.98 48.794c-16.948 24.114-35.38 28.62-71.27 28.62h-93.798c-35.84 0-54.272-4.506-71.27-28.62l-43.93-48.794c-131.584-22.988-227.020-83.968-227.020-128.922v-8.754c0-79.154 174.182-143.36 389.12-143.36s389.12 64.206 389.12 143.36v8.754c0 44.954-95.386 105.932-226.97 128.922zM617.932 760.884l-64.102 68.558h-83.662l-64.102-68.558h-87.040c0 0 95.334 113.664 108.084 129.074 9.728 11.776 19.712 16.282 32.614 16.282h104.602c12.902 0 22.836-4.506 32.614-16.282 12.698-15.412 108.082-129.074 108.082-129.074h-87.092z" />
<glyph unicode="&#xec72;" d="M634.828 285.798c13.722-13.876 13.722-36.302 0-50.126-13.722-13.876-35.89-13.876-49.614 0l-196.096 200.038c-13.722 13.876-13.722 36.302 0 50.126l196.096 200.090c13.722 13.876 35.89 13.876 49.614 0s13.722-36.25 0-50.126l-160.768-175.002 160.768-175.002z" />
<glyph unicode="&#xec73;" d="M697.668 377.336c14.73 14.73 38.382 14.73 53.112 0s14.73-37.938 0-52.668l-212-207.54c-14.73-14.73-38.382-14.73-53.112 0l-212.002 207.54c-14.728 14.73-14.728 37.938 0 52.668s38.382 14.73 53.112 0l185.666-170.048 185.222 170.048zM326.334 544.264c-14.728-14.728-38.382-14.728-53.112 0s-14.728 37.938 0 52.668l212 207.54c14.728 14.73 38.382 14.73 53.112 0l212-207.54c14.73-14.73 14.73-37.938 0-52.668s-38.382-14.728-53.112 0l-185.668 170.046-185.222-170.048z" />
<glyph unicode="&#xec74;" d="M336.948 337.972c-13.876-13.722-36.25-13.722-50.126 0-13.824 13.722-13.876 35.89 0 49.664l200.090 195.994c13.876 13.722 36.302 13.722 50.126 0l200.090-196.046c13.876-13.774 13.876-35.942 0-49.664s-36.25-13.722-50.126 0l-175.052 160.82-175.002-160.768z" />
<glyph unicode="&#xec97;" d="M768 761.394h-146.226c-17.306 0-36.608-22.732-36.608-53.196v-105.574h182.836v-150.528h-182.836v-452.096h-172.646v452.046h-156.518v150.58h156.518v88.576c0 127.028 88.166 230.4 209.202 230.4h146.278v-160.206z" />
<glyph unicode="&#xec9a;" d="M842.24 901.12h-660.48c-60.518 0-110.080-49.562-110.080-110.080v-660.48c0-60.57 49.562-110.028 110.030-110.028h334.030v315.75h-105.472v137.524h105.472v68.916c0 106.24 78.438 189.44 178.586 189.44h97.178v-155.342h-86.99c-22.732 0-29.39-13.056-29.39-31.078v-71.884h116.378v-137.574h-116.378v-315.802h167.066c60.57 0 110.028 49.51 110.028 110.028v660.532c0.102 60.518-49.408 110.080-109.978 110.080z" />
<glyph unicode="&#xec9b;" d="M1017.714 428q0 20-30.286 20h-621.714q-22.857 0-48.857-12.286t-40.857-30l-168-207.429q-10.286-13.714-10.286-22.857 0-20 30.286-20h621.714q22.857 0 49.143 12.571t40.571 30.286l168 207.429q10.286 12.571 10.286 22.286zM365.714 521.143h438.857v91.429q0 22.857-16 38.857t-38.857 16h-329.143q-22.857 0-38.857 16t-16 38.857v36.571q0 22.857-16 38.857t-38.857 16h-182.857q-22.857 0-38.857-16t-16-38.857v-487.429l146.286 180q25.143 30.286 66.286 50t80 19.714zM1090.857 428q0-35.429-26.286-68.571l-168.571-207.429q-24.571-30.286-66.286-50t-80-19.714h-621.714q-52.571 0-90.286 37.714t-37.714 90.286v548.571q0 52.571 37.714 90.286t90.286 37.714h182.857q52.571 0 90.286-37.714t37.714-90.286v-18.286h310.857q52.571 0 90.286-37.714t37.714-90.286v-91.429h109.714q30.857 0 56.571-14t38.286-40.286q8.571-18.286 8.571-38.857z" />
<glyph unicode="&#xec9c;" d="M496 864c-238.592 0-432-193.408-432-432s193.408-432 432-432 432 193.408 432 432-193.408 432-432 432zM496 96c-185.568 0-336 150.432-336 336s150.432 336 336 336 336-150.432 336-336-150.432-336-336-336zM496 640c-26.496 0-48-21.472-48-48v-161.984c0-26.496 21.504-48 48-48s48 21.504 48 48v161.984c0 26.528-21.504 48-48 48zM496 320c-26.496 0-48-21.504-48-48s21.504-48 48-48 48 21.504 48 48-21.504 48-48 48z" />
</font>
</defs>
</svg>
